<?xml version="1.0" encoding="UTF-8"?>
<svg id="Layer_1" data-name="Layer 1" xmlns="http://www.w3.org/2000/svg" viewBox="0 0 3600 1250">
  <g>
    <rect x="615.95" y="600.96" width="2497.94" height="135.96" rx="9.16" ry="9.16" style="fill: #b5d5f7; stroke-width: 0px;"/>
    <rect x="1858.75" y="600.96" width="418.38" height="135.96" style="fill: #ffccdb; stroke-width: 0px;"/>
    <rect x="615.95" y="59.89" width="1242.8" height="135.96" rx="9.16" ry="9.16" style="fill: #b5d5f7; stroke-width: 0px;"/>
    <rect x="615.95" y="871.5" width="1661.18" height="135.96" rx="9.16" ry="9.16" style="fill: #b5d5f7; stroke-width: 0px;"/>
    <path d="M1021.95,871.5h1246.02c5.06,0,9.16,4.11,9.16,9.16v117.64c0,5.06-4.11,9.16-9.16,9.16H1021.95v-135.96h0Z" style="fill: #ffccdb; stroke-width: 0px;"/>
    <rect x="615.95" y="330.43" width="2905.29" height="135.96" rx="9.16" ry="9.16" style="fill: #b5d5f7; stroke-width: 0px;"/>
    <rect x="2277.13" y="330.43" width="836.76" height="135.96" style="fill: #ffccdb; stroke-width: 0px;"/>
    <text transform="translate(87.24 141.41)" style="fill: #091313; font-family: OpenSans-ExtraBold, &apos;Open Sans&apos;; font-size: 48px; font-weight: 700;"><tspan x="0" y="0">Run modes</tspan></text>
    <text transform="translate(1101.14 136.4)" style="fill: #091313; font-family: OpenSans-Regular, &apos;Open Sans&apos;; font-size: 29px;"><tspan x="0" y="0">Works in dev mode</tspan></text>
    <text transform="translate(720.74 136.4)" style="fill: #091313; font-family: OpenSans-Regular, &apos;Open Sans&apos;; font-size: 29px;"><tspan x="0" y="0">Works on JVM</tspan></text>
    <text transform="translate(1545.68 136.4)" style="fill: #091313; font-family: OpenSans-Regular, &apos;Open Sans&apos;; font-size: 29px;"><tspan x="0" y="0">Works in native</tspan></text>
    <g>
      <line x1="58.67" y1="263.14" x2="64.67" y2="263.14" style="fill: none; stroke: #091313; stroke-miterlimit: 10;"/>
      <line x1="88.8" y1="263.14" x2="3514.2" y2="263.14" style="fill: none; stroke: #091313; stroke-dasharray: 0 0 12.06 24.12; stroke-miterlimit: 10;"/>
      <line x1="3526.27" y1="263.14" x2="3532.27" y2="263.14" style="fill: none; stroke: #091313; stroke-miterlimit: 10;"/>
    </g>
    <circle cx="3532.27" cy="263.14" r="9.06" style="fill: #fff; stroke: #000; stroke-miterlimit: 10; stroke-width: 2px;"/>
    <circle cx="603.61" cy="263.14" r="9.06" style="fill: #fff; stroke: #000; stroke-miterlimit: 10; stroke-width: 2px;"/>
    <circle cx="1021.99" cy="263.14" r="9.06" style="fill: #fff; stroke: #000; stroke-miterlimit: 10; stroke-width: 2px;"/>
    <circle cx="1440.37" cy="263.14" r="9.06" style="fill: #fff; stroke: #000; stroke-miterlimit: 10; stroke-width: 2px;"/>
    <circle cx="1858.75" cy="263.14" r="9.06" style="fill: #fff; stroke: #000; stroke-miterlimit: 10; stroke-width: 2px;"/>
    <circle cx="2277.13" cy="263.14" r="9.06" style="fill: #fff; stroke: #000; stroke-miterlimit: 10; stroke-width: 2px;"/>
    <circle cx="2695.51" cy="263.14" r="9.06" style="fill: #fff; stroke: #000; stroke-miterlimit: 10; stroke-width: 2px;"/>
    <circle cx="3113.89" cy="263.14" r="9.06" style="fill: #fff; stroke: #000; stroke-miterlimit: 10; stroke-width: 2px;"/>
    <line x1="58.7" y1="247.78" x2="58.7" y2="278.5" style="fill: none; stroke: #091313; stroke-linecap: round; stroke-miterlimit: 10; stroke-width: 2px;"/>
    <path d="M472.59,432.79h-18.23v-67.28h18.23v7.95h-8.44v51.39h8.44v7.95Z" style="fill: #4695eb; stroke-width: 0px;"/>
    <path d="M545.6,424.84h8.4v-51.39h-8.4v-7.95h18.23v67.28h-18.23v-7.95Z" style="fill: #4695eb; stroke-width: 0px;"/>
    <path d="M510.22,432.02c-19.64.64-35.76-15.47-35.12-35.12.58-17.82,15.04-32.28,32.86-32.86,19.64-.64,35.75,15.48,35.12,35.12-.58,17.82-15.04,32.28-32.86,32.86ZM510.44,369.35c-16.9-.78-30.81,13.14-30.03,30.03.68,14.73,12.61,26.66,27.34,27.34,16.9.78,30.81-13.14,30.03-30.03-.68-14.73-12.61-26.66-27.34-27.34Z" style="fill: #091313; stroke-width: 0px;"/>
    <path d="M509.09,418.52c-9.02,0-16.88-5.78-19.56-14.38-.34-1.09.05-2.32,1-2.96,1.56-1.05,3.53-.26,4.05,1.38,1.99,6.38,7.82,10.66,14.51,10.66s12.52-4.29,14.51-10.66c.51-1.64,2.48-2.43,4.05-1.38.95.64,1.34,1.86,1,2.96-2.68,8.6-10.55,14.38-19.56,14.38Z" style="fill: #091313; stroke-width: 0px;"/>
    <ellipse cx="499.21" cy="387.78" rx="3.61" ry="5.89" style="fill: #091313; stroke-width: 0px;"/>
    <path d="M521.94,393.01c-.22,0-.45-.06-.66-.18l-6.09-3.5c-.24-.14-.45-.34-.56-.59-.3-.67-.04-1.39.54-1.72l6.12-3.51c.63-.36,1.44-.14,1.8.49.36.63.14,1.44-.49,1.8l-4.12,2.36,4.07,2.33c.57.33.87,1.02.63,1.64-.21.55-.72.86-1.24.86Z" style="fill: #091313; stroke-width: 0px;"/>
    <text transform="translate(87.24 411.94)" style="fill: #091313; font-family: OpenSans-ExtraBold, &apos;Open Sans&apos;; font-size: 48px; font-weight: 700;"><tspan x="0" y="0">Developer joy</tspan></text>
    <text transform="translate(719.22 406.93)" style="fill: #091313; font-family: OpenSans-Regular, &apos;Open Sans&apos;; font-size: 29px;"><tspan x="0" y="0">Unified config</tspan></text>
    <text transform="translate(1169.67 406.93)" style="fill: #091313; font-family: OpenSans-Regular, &apos;Open Sans&apos;; font-size: 29px;"><tspan x="0" y="0">CDI bean</tspan></text>
    <text transform="translate(1571.84 406.93)" style="fill: #091313; font-family: OpenSans-Regular, &apos;Open Sans&apos;; font-size: 29px;"><tspan x="0" y="0">Dev Service</tspan></text>
    <text transform="translate(1984.89 406.93)" style="fill: #091313; font-family: OpenSans-Regular, &apos;Open Sans&apos;; font-size: 29px;"><tspan x="0" y="0">Basic Dev UI</tspan></text>
    <text transform="translate(2409.78 406.93)" style="fill: #091313; font-family: OpenSans-Regular, &apos;Open Sans&apos;; font-size: 29px;"><tspan x="0" y="0">Rich Dev UI</tspan></text>
    <text transform="translate(2723.84 406.93)" style="fill: #091313; font-family: OpenSans-Regular, &apos;Open Sans&apos;; font-size: 29px;"><tspan x="0" y="0">Joyful programming model</tspan></text>
    <text transform="translate(3192.63 406.93)" style="fill: #091313; font-family: OpenSans-Regular, &apos;Open Sans&apos;; font-size: 29px;"><tspan x="0" y="0">Codestart template</tspan></text>
    <g>
      <line x1="58.67" y1="533.68" x2="64.67" y2="533.68" style="fill: none; stroke: #091313; stroke-miterlimit: 10;"/>
      <line x1="88.8" y1="533.68" x2="3514.2" y2="533.68" style="fill: none; stroke: #091313; stroke-dasharray: 0 0 12.06 24.12; stroke-miterlimit: 10;"/>
      <line x1="3526.27" y1="533.68" x2="3532.27" y2="533.68" style="fill: none; stroke: #091313; stroke-miterlimit: 10;"/>
    </g>
    <circle cx="3532.27" cy="533.68" r="9.06" style="fill: #fff; stroke: #000; stroke-miterlimit: 10; stroke-width: 2px;"/>
    <circle cx="603.61" cy="533.68" r="9.06" style="fill: #fff; stroke: #000; stroke-miterlimit: 10; stroke-width: 2px;"/>
    <circle cx="1021.99" cy="533.68" r="9.06" style="fill: #fff; stroke: #000; stroke-miterlimit: 10; stroke-width: 2px;"/>
    <circle cx="1440.37" cy="533.68" r="9.06" style="fill: #fff; stroke: #000; stroke-miterlimit: 10; stroke-width: 2px;"/>
    <circle cx="1858.75" cy="533.68" r="9.06" style="fill: #fff; stroke: #000; stroke-miterlimit: 10; stroke-width: 2px;"/>
    <circle cx="2277.13" cy="533.68" r="9.06" style="fill: #fff; stroke: #000; stroke-miterlimit: 10; stroke-width: 2px;"/>
    <circle cx="2695.51" cy="533.68" r="9.06" style="fill: #fff; stroke: #000; stroke-miterlimit: 10; stroke-width: 2px;"/>
    <circle cx="3113.89" cy="533.68" r="9.06" style="fill: #fff; stroke: #000; stroke-miterlimit: 10; stroke-width: 2px;"/>
    <line x1="58.7" y1="518.32" x2="58.7" y2="549.04" style="fill: none; stroke: #091313; stroke-linecap: round; stroke-miterlimit: 10; stroke-width: 2px;"/>
    <g>
      <path d="M113.35,643.27c0,2.12-.54,4.01-1.62,5.66s-2.63,2.93-4.66,3.84-4.41,1.37-7.15,1.37c-2.28,0-4.2-.16-5.74-.48s-3.16-.88-4.83-1.68v-8.25c1.77.91,3.6,1.61,5.51,2.12s3.66.76,5.25.76c1.38,0,2.38-.24,3.02-.71s.96-1.09.96-1.84c0-.47-.13-.88-.39-1.23s-.67-.71-1.24-1.07-2.09-1.09-4.56-2.2c-2.23-1.02-3.91-2-5.03-2.95s-1.95-2.05-2.48-3.28-.81-2.7-.81-4.38c0-3.16,1.15-5.62,3.45-7.38s5.45-2.65,9.47-2.65c3.55,0,7.16.82,10.85,2.46l-2.84,7.15c-3.2-1.47-5.97-2.2-8.3-2.2-1.2,0-2.08.21-2.62.63s-.82.95-.82,1.57c0,.67.35,1.27,1.04,1.8s2.58,1.5,5.66,2.91c2.95,1.33,5,2.75,6.15,4.28s1.72,3.44,1.72,5.75Z" style="fill: #091313; stroke-width: 0px;"/>
      <path d="M137.02,653.68l-1.15-3.3h-.54c-.77,1.22-1.83,2.15-3.2,2.8s-2.97.97-4.82.97c-2.92,0-5.2-.85-6.82-2.54s-2.44-4.09-2.44-7.18v-17.3h9.16v14.51c0,1.73.25,3.05.74,3.94s1.3,1.34,2.43,1.34c1.58,0,2.7-.62,3.38-1.86s1.01-3.34,1.01-6.29v-11.62h9.16v26.55h-6.91Z" style="fill: #091313; stroke-width: 0px;"/>
      <path d="M166.2,654.15c-1.34,0-2.55-.22-3.61-.67s-2.12-1.25-3.16-2.4h-.42c.28,1.86.42,3.02.42,3.47v10.66h-9.16v-38.09h7.45l1.29,3.38h.42c1.7-2.56,4.05-3.84,7.05-3.84s5.24,1.22,6.91,3.66,2.51,5.78,2.51,10.03-.87,7.65-2.61,10.11-4.11,3.69-7.09,3.69ZM163.13,633.85c-1.34,0-2.29.48-2.82,1.44s-.83,2.39-.88,4.28v.73c0,2.28.3,3.93.91,4.95s1.57,1.52,2.88,1.52c1.17,0,2.02-.5,2.55-1.51s.8-2.68.8-5-.27-3.92-.8-4.91-1.41-1.49-2.65-1.49Z" style="fill: #091313; stroke-width: 0px;"/>
      <path d="M193.95,654.15c-4.42,0-7.86-1.18-10.3-3.53s-3.67-5.7-3.67-10.04,1.13-7.93,3.4-10.32,5.5-3.6,9.7-3.6,7.09,1.04,9.27,3.13,3.27,5.09,3.27,9.01v4.08h-16.38c.06,1.48.61,2.65,1.63,3.49s2.42,1.27,4.18,1.27c1.61,0,3.09-.15,4.44-.46s2.82-.82,4.39-1.56v6.59c-1.44.73-2.92,1.24-4.45,1.52s-3.36.42-5.48.42ZM193.41,632.89c-1.08,0-1.98.34-2.71,1.02s-1.15,1.75-1.28,3.2h7.88c-.03-1.28-.39-2.3-1.09-3.07s-1.63-1.15-2.8-1.15Z" style="fill: #091313; stroke-width: 0px;"/>
      <path d="M226.83,626.66c.8,0,1.55.06,2.27.19l.52.09-.82,8.65c-.75-.19-1.79-.28-3.12-.28-2,0-3.45.46-4.36,1.37s-1.36,2.23-1.36,3.95v13.05h-9.16v-26.55h6.82l1.43,4.24h.45c.77-1.41,1.83-2.54,3.2-3.41s2.75-1.3,4.14-1.3Z" style="fill: #091313; stroke-width: 0px;"/>
      <path d="M253.83,645.52c0,2.84-.97,4.99-2.91,6.45s-4.72,2.18-8.34,2.18c-1.97,0-3.68-.11-5.13-.32s-2.94-.6-4.45-1.16v-7.34c1.42.62,2.98,1.14,4.68,1.55s3.21.61,4.54.61c1.98,0,2.98-.45,2.98-1.36,0-.47-.28-.89-.83-1.25s-2.17-1.08-4.84-2.14c-2.44-1-4.14-2.14-5.11-3.41s-1.45-2.89-1.45-4.84c0-2.47.95-4.39,2.86-5.77s4.6-2.06,8.09-2.06c1.75,0,3.39.19,4.93.57s3.14.94,4.79,1.68l-2.48,5.91c-1.22-.55-2.51-1.01-3.87-1.39s-2.47-.57-3.33-.57c-1.5,0-2.25.37-2.25,1.1,0,.45.26.84.79,1.16s2.04.97,4.54,1.96c1.86.77,3.25,1.52,4.16,2.25s1.59,1.6,2.02,2.59.64,2.2.64,3.62Z" style="fill: #091313; stroke-width: 0px;"/>
      <path d="M284.27,640.34c0,4.34-1.17,7.73-3.5,10.16s-5.61,3.64-9.81,3.64-7.24-1.24-9.62-3.73-3.57-5.84-3.57-10.08,1.17-7.69,3.5-10.09,5.61-3.6,9.83-3.6c2.61,0,4.91.55,6.91,1.66s3.54,2.7,4.63,4.77,1.63,4.49,1.63,7.25ZM267.07,640.34c0,2.28.3,4.02.91,5.21s1.63,1.79,3.07,1.79,2.43-.6,3.01-1.79.88-2.93.88-5.21-.3-3.98-.89-5.13-1.61-1.73-3.05-1.73-2.41.57-3.02,1.72-.91,2.86-.91,5.14Z" style="fill: #091313; stroke-width: 0px;"/>
      <path d="M306.26,653.68v-14.48c0-1.77-.25-3.1-.76-4s-1.32-1.35-2.45-1.35c-1.55,0-2.66.62-3.35,1.85s-1.03,3.35-1.03,6.35v11.62h-9.16v-26.55h6.91l1.15,3.28h.54c.78-1.25,1.86-2.19,3.25-2.81s2.97-.94,4.77-.94c2.94,0,5.22.85,6.86,2.55s2.45,4.1,2.45,7.2v17.27h-9.16Z" style="fill: #091313; stroke-width: 0px;"/>
      <path d="M321.47,620.52c0-1.38.38-2.4,1.15-3.07s2-1.01,3.7-1.01,2.95.34,3.73,1.03,1.17,1.7,1.17,3.05c0,2.69-1.63,4.03-4.9,4.03s-4.85-1.34-4.85-4.03ZM330.87,653.68h-9.16v-26.55h9.16v26.55Z" style="fill: #091313; stroke-width: 0px;"/>
      <path d="M349.36,654.15c-4.34,0-7.64-1.17-9.88-3.52s-3.36-5.71-3.36-10.1,1.21-7.82,3.63-10.24,5.87-3.63,10.34-3.63c3.08,0,5.98.67,8.7,2.02l-2.7,6.77c-1.11-.48-2.13-.87-3.07-1.16s-1.91-.43-2.93-.43c-1.48,0-2.63.58-3.45,1.73s-1.22,2.79-1.22,4.9c0,4.25,1.57,6.38,4.71,6.38,2.69,0,5.27-.78,7.73-2.34v7.29c-2.36,1.56-5.2,2.34-8.51,2.34Z" style="fill: #091313; stroke-width: 0px;"/>
      <path d="M106.34,711.75c-1.34,0-2.55-.22-3.61-.67s-2.12-1.25-3.16-2.4h-.42c.28,1.86.42,3.02.42,3.47v10.66h-9.16v-38.09h7.45l1.29,3.38h.42c1.7-2.56,4.05-3.84,7.05-3.84s5.24,1.22,6.91,3.66,2.51,5.78,2.51,10.03-.87,7.65-2.61,10.11-4.11,3.69-7.09,3.69ZM103.27,691.45c-1.34,0-2.29.48-2.82,1.44s-.83,2.39-.88,4.28v.73c0,2.28.3,3.93.91,4.95s1.57,1.52,2.88,1.52c1.17,0,2.02-.5,2.55-1.51s.8-2.68.8-5-.27-3.92-.8-4.91-1.41-1.49-2.65-1.49Z" style="fill: #091313; stroke-width: 0px;"/>
      <path d="M134.09,711.75c-4.42,0-7.86-1.18-10.3-3.53s-3.67-5.7-3.67-10.04,1.13-7.93,3.4-10.32,5.5-3.6,9.7-3.6,7.09,1.04,9.27,3.13,3.27,5.09,3.27,9.01v4.08h-16.38c.06,1.48.61,2.65,1.63,3.49s2.42,1.27,4.18,1.27c1.61,0,3.09-.15,4.44-.46s2.82-.82,4.39-1.56v6.59c-1.44.73-2.92,1.24-4.45,1.52s-3.36.42-5.48.42ZM133.55,690.49c-1.08,0-1.98.34-2.71,1.02s-1.15,1.75-1.28,3.2h7.88c-.03-1.28-.39-2.3-1.09-3.07s-1.63-1.15-2.8-1.15Z" style="fill: #091313; stroke-width: 0px;"/>
      <path d="M166.97,684.26c.8,0,1.55.06,2.27.19l.52.09-.82,8.65c-.75-.19-1.79-.28-3.12-.28-2,0-3.45.46-4.36,1.37s-1.36,2.23-1.36,3.95v13.05h-9.16v-26.55h6.82l1.43,4.24h.45c.77-1.41,1.83-2.54,3.2-3.41s2.75-1.3,4.14-1.3Z" style="fill: #091313; stroke-width: 0px;"/>
      <path d="M189.68,691.59h-5.65v19.69h-9.16v-19.69h-3.52v-4.5l3.7-2.25v-.45c0-3.5.71-6.02,2.14-7.55s3.72-2.3,6.88-2.3c1.22,0,2.37.09,3.46.28s2.35.52,3.79.98l-1.97,5.93c-1.12-.31-2.23-.47-3.3-.47-.7,0-1.21.21-1.54.64s-.48,1.13-.48,2.1v.7h5.65v6.87Z" style="fill: #091313; stroke-width: 0px;"/>
      <path d="M218.65,697.94c0,4.34-1.17,7.73-3.5,10.16s-5.61,3.64-9.81,3.64-7.24-1.24-9.62-3.73-3.57-5.84-3.57-10.08,1.17-7.69,3.5-10.09,5.61-3.6,9.83-3.6c2.61,0,4.91.55,6.91,1.66s3.54,2.7,4.63,4.77,1.63,4.49,1.63,7.25ZM201.45,697.94c0,2.28.3,4.02.91,5.21s1.63,1.79,3.07,1.79,2.43-.6,3.01-1.79.88-2.93.88-5.21-.3-3.98-.89-5.13-1.61-1.73-3.05-1.73-2.41.57-3.02,1.72-.91,2.86-.91,5.14Z" style="fill: #091313; stroke-width: 0px;"/>
      <path d="M239.91,684.26c.8,0,1.55.06,2.27.19l.52.09-.82,8.65c-.75-.19-1.79-.28-3.12-.28-2,0-3.45.46-4.36,1.37s-1.36,2.23-1.36,3.95v13.05h-9.16v-26.55h6.82l1.43,4.24h.45c.77-1.41,1.83-2.54,3.2-3.41s2.75-1.3,4.14-1.3Z" style="fill: #091313; stroke-width: 0px;"/>
      <path d="M279,711.28v-14.44c0-1.8-.25-3.14-.74-4.04s-1.27-1.35-2.33-1.35c-1.41,0-2.44.6-3.09,1.8s-.98,3.09-.98,5.65v12.38h-9.19v-14.44c0-1.8-.23-3.14-.7-4.04s-1.23-1.35-2.27-1.35c-1.44,0-2.48.64-3.14,1.92s-.98,3.38-.98,6.28v11.62h-9.16v-26.55h6.91l1.15,3.28h.54c.7-1.22,1.72-2.15,3.06-2.79s2.86-.96,4.56-.96c3.83,0,6.52,1.16,8.06,3.49h.73c.75-1.09,1.79-1.95,3.13-2.57s2.81-.93,4.42-.93c3.14,0,5.46.8,6.96,2.41s2.25,4.05,2.25,7.34v17.27h-9.16Z" style="fill: #091313; stroke-width: 0px;"/>
      <path d="M311.72,711.28l-1.76-3.52h-.19c-1.23,1.53-2.49,2.58-3.77,3.14s-2.94.84-4.97.84c-2.5,0-4.47-.75-5.91-2.25s-2.16-3.61-2.16-6.33.98-4.93,2.95-6.32,4.82-2.16,8.55-2.33l4.43-.14v-.38c0-2.19-1.08-3.28-3.23-3.28-1.94,0-4.4.66-7.38,1.97l-2.65-6.05c3.09-1.59,7-2.39,11.72-2.39,3.41,0,6.04.84,7.91,2.53s2.8,4.05,2.8,7.08v17.41h-6.35ZM304.92,705.28c1.11,0,2.06-.35,2.85-1.05s1.18-1.62,1.18-2.74v-2.06l-2.11.09c-3.02.11-4.52,1.22-4.52,3.33,0,1.62.87,2.44,2.6,2.44Z" style="fill: #091313; stroke-width: 0px;"/>
      <path d="M341.06,711.28v-14.48c0-1.77-.25-3.1-.76-4s-1.32-1.35-2.45-1.35c-1.55,0-2.66.62-3.35,1.85s-1.03,3.35-1.03,6.35v11.62h-9.16v-26.55h6.91l1.15,3.28h.54c.78-1.25,1.86-2.19,3.25-2.81s2.97-.94,4.77-.94c2.94,0,5.22.85,6.86,2.55s2.45,4.1,2.45,7.2v17.27h-9.16Z" style="fill: #091313; stroke-width: 0px;"/>
      <path d="M368.56,711.75c-4.34,0-7.64-1.17-9.88-3.52s-3.36-5.71-3.36-10.1,1.21-7.82,3.63-10.24,5.87-3.63,10.34-3.63c3.08,0,5.98.67,8.7,2.02l-2.7,6.77c-1.11-.48-2.13-.87-3.07-1.16s-1.91-.43-2.93-.43c-1.48,0-2.63.58-3.45,1.73s-1.22,2.79-1.22,4.9c0,4.25,1.57,6.38,4.71,6.38,2.69,0,5.27-.78,7.73-2.34v7.29c-2.36,1.56-5.2,2.34-8.51,2.34Z" style="fill: #091313; stroke-width: 0px;"/>
      <path d="M395.16,711.75c-4.42,0-7.86-1.18-10.3-3.53s-3.67-5.7-3.67-10.04,1.13-7.93,3.4-10.32,5.5-3.6,9.7-3.6,7.09,1.04,9.27,3.13,3.27,5.09,3.27,9.01v4.08h-16.38c.06,1.48.61,2.65,1.63,3.49s2.42,1.27,4.18,1.27c1.61,0,3.09-.15,4.44-.46s2.82-.82,4.39-1.56v6.59c-1.44.73-2.92,1.24-4.45,1.52s-3.36.42-5.48.42ZM394.62,690.49c-1.08,0-1.98.34-2.71,1.02s-1.15,1.75-1.28,3.2h7.88c-.03-1.28-.39-2.3-1.09-3.07s-1.63-1.15-2.8-1.15Z" style="fill: #091313; stroke-width: 0px;"/>
    </g>
    <text transform="translate(750.85 677.47)" style="fill: #091313; font-family: OpenSans-Regular, &apos;Open Sans&apos;; font-size: 29px;"><tspan x="0" y="0">Static init</tspan></text>
    <text transform="translate(1110.54 677.47)" style="fill: #091313; font-family: OpenSans-Regular, &apos;Open Sans&apos;; font-size: 29px;"><tspan x="0" y="0">Replace reflection</tspan></text>
    <text transform="translate(1499.65 677.47)" style="fill: #091313; font-family: OpenSans-Regular, &apos;Open Sans&apos;; font-size: 29px;"><tspan x="0" y="0">Virtual thread support</tspan></text>
    <text transform="translate(2335.75 677.47)" style="fill: #091313; font-family: OpenSans-Regular, &apos;Open Sans&apos;; font-size: 29px;"><tspan x="0" y="0">Non-blocking internals</tspan></text>
    <g>
      <path d="M2023.29,660.07h-2.41v-9.74h-10.9v9.74h-2.41v-20.7h2.41v8.81h10.9v-8.81h2.41v20.7Z" style="fill: #091313; stroke-width: 0px;"/>
      <path d="M2042.01,652.29c0,2.53-.64,4.51-1.91,5.93-1.28,1.42-3.04,2.13-5.28,2.13-1.39,0-2.62-.33-3.7-.98s-1.91-1.59-2.49-2.8c-.58-1.22-.88-2.64-.88-4.28,0-2.53.63-4.5,1.9-5.91,1.27-1.41,3.02-2.12,5.27-2.12s3.9.72,5.18,2.17,1.92,3.4,1.92,5.86ZM2030.18,652.29c0,1.98.4,3.49,1.19,4.53s1.96,1.56,3.5,1.56,2.71-.52,3.5-1.55c.8-1.03,1.2-2.55,1.2-4.54s-.4-3.47-1.2-4.5c-.8-1.02-1.98-1.54-3.53-1.54s-2.7.5-3.48,1.52-1.17,2.52-1.17,4.52Z" style="fill: #091313; stroke-width: 0px;"/>
      <path d="M2051.14,658.41c.42,0,.82-.03,1.2-.09.39-.06.69-.12.92-.19v1.8c-.25.12-.63.22-1.13.3-.5.08-.94.12-1.34.12-3,0-4.5-1.58-4.5-4.74v-9.23h-2.22v-1.13l2.22-.98.99-3.31h1.36v3.6h4.5v1.83h-4.5v9.13c0,.93.22,1.65.67,2.15.44.5,1.05.75,1.83.75Z" style="fill: #091313; stroke-width: 0px;"/>
      <path d="M2071.12,660.35c-1.01,0-1.93-.19-2.77-.56-.83-.37-1.54-.95-2.1-1.72h-.17c.11.91.17,1.77.17,2.58v6.39h-2.35v-22.49h1.91l.33,2.12h.11c.6-.85,1.31-1.46,2.11-1.84.8-.38,1.72-.57,2.76-.57,2.06,0,3.65.7,4.76,2.11,1.12,1.41,1.68,3.38,1.68,5.92s-.57,4.53-1.71,5.94c-1.14,1.41-2.72,2.12-4.74,2.12ZM2070.78,646.26c-1.59,0-2.73.44-3.44,1.32-.71.88-1.07,2.27-1.09,4.19v.52c0,2.18.36,3.74,1.09,4.68.73.94,1.89,1.41,3.5,1.41,1.34,0,2.39-.54,3.15-1.63s1.14-2.58,1.14-4.49-.38-3.42-1.14-4.45c-.76-1.03-1.83-1.55-3.21-1.55Z" style="fill: #091313; stroke-width: 0px;"/>
      <path d="M2091.21,660.07l-.47-2.21h-.11c-.77.97-1.54,1.63-2.31,1.98-.77.34-1.73.52-2.88.52-1.54,0-2.75-.4-3.62-1.19s-1.31-1.92-1.31-3.38c0-3.13,2.51-4.78,7.52-4.93l2.63-.08v-.96c0-1.22-.26-2.12-.79-2.7-.52-.58-1.36-.87-2.51-.87-1.29,0-2.76.4-4.39,1.19l-.72-1.8c.77-.42,1.6-.74,2.51-.98s1.82-.35,2.74-.35c1.85,0,3.22.41,4.11,1.23.89.82,1.34,2.14,1.34,3.95v10.59h-1.74ZM2085.9,658.41c1.46,0,2.61-.4,3.45-1.2.84-.8,1.25-1.93,1.25-3.37v-1.4l-2.35.1c-1.87.07-3.22.36-4.04.87-.83.51-1.24,1.31-1.24,2.4,0,.85.26,1.5.77,1.94s1.23.67,2.16.67Z" style="fill: #091313; stroke-width: 0px;"/>
      <path d="M2102.81,658.41c.42,0,.82-.03,1.2-.09.39-.06.69-.12.92-.19v1.8c-.25.12-.63.22-1.13.3-.5.08-.94.12-1.34.12-3,0-4.5-1.58-4.5-4.74v-9.23h-2.22v-1.13l2.22-.98.99-3.31h1.36v3.6h4.5v1.83h-4.5v9.13c0,.93.22,1.65.67,2.15.44.5,1.05.75,1.83.75Z" style="fill: #091313; stroke-width: 0px;"/>
      <path d="M2118.65,660.07v-10.04c0-1.27-.29-2.21-.86-2.83-.58-.62-1.48-.93-2.7-.93-1.63,0-2.83.44-3.58,1.33-.75.89-1.13,2.34-1.13,4.36v8.11h-2.35v-22.03h2.35v6.67c0,.8-.04,1.47-.11,2h.14c.46-.75,1.12-1.33,1.98-1.76.85-.43,1.83-.64,2.92-.64,1.9,0,3.32.45,4.27,1.35.95.9,1.42,2.33,1.42,4.3v10.12h-2.35Z" style="fill: #091313; stroke-width: 0px;"/>
      <path d="M1900.85,695.15c-1.01,0-1.93-.19-2.77-.56-.83-.37-1.54-.95-2.1-1.72h-.17c.11.91.17,1.77.17,2.58v6.39h-2.35v-22.49h1.91l.33,2.12h.11c.6-.85,1.31-1.46,2.11-1.84.8-.38,1.72-.57,2.76-.57,2.06,0,3.65.7,4.76,2.11,1.12,1.41,1.68,3.38,1.68,5.92s-.57,4.53-1.71,5.94c-1.14,1.41-2.72,2.12-4.74,2.12ZM1900.51,681.06c-1.59,0-2.73.44-3.44,1.32-.71.88-1.07,2.27-1.09,4.19v.52c0,2.18.36,3.74,1.09,4.68.73.94,1.89,1.41,3.5,1.41,1.34,0,2.39-.54,3.15-1.63s1.14-2.58,1.14-4.49-.38-3.42-1.14-4.45c-.76-1.03-1.83-1.55-3.21-1.55Z" style="fill: #091313; stroke-width: 0px;"/>
      <path d="M1917.96,695.15c-2.29,0-4.1-.7-5.43-2.1s-1.99-3.34-1.99-5.82.62-4.49,1.85-5.96c1.23-1.47,2.89-2.21,4.96-2.21,1.94,0,3.48.64,4.62,1.92,1.13,1.28,1.7,2.97,1.7,5.06v1.49h-10.69c.05,1.82.51,3.21,1.38,4.15s2.1,1.42,3.69,1.42c1.67,0,3.32-.35,4.96-1.05v2.1c-.83.36-1.62.62-2.36.77-.74.16-1.64.23-2.68.23ZM1917.32,681.03c-1.25,0-2.24.41-2.98,1.22s-1.18,1.94-1.31,3.37h8.11c0-1.48-.33-2.62-.99-3.41-.66-.79-1.6-1.18-2.83-1.18Z" style="fill: #091313; stroke-width: 0px;"/>
      <path d="M1934.75,679.07c.69,0,1.31.06,1.86.17l-.33,2.18c-.64-.14-1.21-.21-1.7-.21-1.26,0-2.33.51-3.22,1.53-.89,1.02-1.34,2.29-1.34,3.81v8.33h-2.35v-15.52h1.94l.27,2.87h.11c.58-1.01,1.27-1.79,2.08-2.34.81-.55,1.7-.82,2.68-.82Z" style="fill: #091313; stroke-width: 0px;"/>
      <path d="M1946.5,681.18h-3.95v13.69h-2.35v-13.69h-2.78v-1.06l2.78-.85v-.86c0-3.81,1.67-5.72,5-5.72.82,0,1.78.17,2.89.5l-.61,1.88c-.91-.29-1.68-.44-2.32-.44-.89,0-1.54.29-1.97.88-.42.59-.64,1.54-.64,2.84v1.01h3.95v1.83Z" style="fill: #091313; stroke-width: 0px;"/>
      <path d="M1962.73,687.09c0,2.53-.64,4.51-1.91,5.93-1.28,1.42-3.04,2.13-5.28,2.13-1.39,0-2.62-.33-3.7-.98s-1.91-1.59-2.49-2.8c-.58-1.22-.88-2.64-.88-4.28,0-2.53.63-4.5,1.9-5.91,1.27-1.41,3.02-2.12,5.27-2.12s3.9.72,5.18,2.17,1.92,3.4,1.92,5.86ZM1950.91,687.09c0,1.98.4,3.49,1.19,4.53s1.96,1.56,3.5,1.56,2.71-.52,3.5-1.55c.8-1.03,1.2-2.55,1.2-4.54s-.4-3.47-1.2-4.5c-.8-1.02-1.98-1.54-3.53-1.54s-2.7.5-3.48,1.52-1.17,2.52-1.17,4.52Z" style="fill: #091313; stroke-width: 0px;"/>
      <path d="M1973.93,679.07c.69,0,1.31.06,1.86.17l-.33,2.18c-.64-.14-1.21-.21-1.7-.21-1.26,0-2.33.51-3.22,1.53-.89,1.02-1.34,2.29-1.34,3.81v8.33h-2.35v-15.52h1.94l.27,2.87h.11c.58-1.01,1.27-1.79,2.08-2.34.81-.55,1.7-.82,2.68-.82Z" style="fill: #091313; stroke-width: 0px;"/>
      <path d="M1998.47,694.87v-10.1c0-1.24-.26-2.16-.79-2.78-.53-.62-1.35-.93-2.46-.93-1.46,0-2.54.42-3.24,1.26s-1.05,2.13-1.05,3.88v8.67h-2.35v-10.1c0-1.24-.26-2.16-.79-2.78-.53-.62-1.35-.93-2.48-.93-1.47,0-2.55.44-3.24,1.32-.68.88-1.03,2.33-1.03,4.34v8.14h-2.35v-15.52h1.91l.38,2.12h.11c.44-.76,1.07-1.35,1.88-1.77.81-.42,1.71-.64,2.71-.64,2.43,0,4.01.88,4.76,2.63h.11c.46-.81,1.13-1.45,2.01-1.93s1.88-.71,3-.71c1.76,0,3.07.45,3.94,1.35.87.9,1.31,2.34,1.31,4.33v10.12h-2.35Z" style="fill: #091313; stroke-width: 0px;"/>
      <path d="M2015.21,694.87l-.47-2.21h-.11c-.77.97-1.54,1.63-2.31,1.98-.77.34-1.73.52-2.88.52-1.54,0-2.75-.4-3.62-1.19s-1.31-1.92-1.31-3.38c0-3.13,2.51-4.78,7.52-4.93l2.63-.08v-.96c0-1.22-.26-2.12-.79-2.7-.52-.58-1.36-.87-2.51-.87-1.29,0-2.76.4-4.39,1.19l-.72-1.8c.77-.42,1.6-.74,2.51-.98s1.82-.35,2.74-.35c1.85,0,3.22.41,4.11,1.23.89.82,1.34,2.14,1.34,3.95v10.59h-1.74ZM2009.9,693.21c1.46,0,2.61-.4,3.45-1.2.84-.8,1.25-1.93,1.25-3.37v-1.4l-2.35.1c-1.87.07-3.22.36-4.04.87-.83.51-1.24,1.31-1.24,2.4,0,.85.26,1.5.77,1.94s1.23.67,2.16.67Z" style="fill: #091313; stroke-width: 0px;"/>
      <path d="M2032.41,694.87v-10.04c0-1.27-.29-2.21-.86-2.83-.58-.62-1.48-.93-2.7-.93-1.62,0-2.81.44-3.57,1.32s-1.13,2.33-1.13,4.35v8.14h-2.35v-15.52h1.91l.38,2.12h.11c.48-.76,1.16-1.36,2.02-1.78.87-.42,1.84-.63,2.9-.63,1.87,0,3.28.45,4.22,1.35.94.9,1.42,2.34,1.42,4.33v10.12h-2.35Z" style="fill: #091313; stroke-width: 0px;"/>
      <path d="M2045.79,695.15c-2.25,0-3.99-.69-5.22-2.07-1.23-1.38-1.85-3.34-1.85-5.87s.62-4.6,1.88-6.02,3.03-2.12,5.34-2.12c.75,0,1.49.08,2.24.24.75.16,1.33.35,1.76.57l-.72,2c-.52-.21-1.09-.38-1.7-.52-.61-.14-1.16-.21-1.63-.21-3.15,0-4.73,2.01-4.73,6.03,0,1.91.38,3.37,1.15,4.39s1.91,1.53,3.42,1.53c1.29,0,2.62-.28,3.98-.84v2.08c-1.04.54-2.35.81-3.92.81Z" style="fill: #091313; stroke-width: 0px;"/>
      <path d="M2059.95,695.15c-2.29,0-4.1-.7-5.43-2.1s-1.99-3.34-1.99-5.82.62-4.49,1.85-5.96c1.23-1.47,2.89-2.21,4.96-2.21,1.94,0,3.48.64,4.62,1.92,1.13,1.28,1.7,2.97,1.7,5.06v1.49h-10.69c.05,1.82.51,3.21,1.38,4.15s2.1,1.42,3.69,1.42c1.67,0,3.32-.35,4.96-1.05v2.1c-.83.36-1.62.62-2.36.77-.74.16-1.64.23-2.68.23ZM2059.32,681.03c-1.25,0-2.24.41-2.98,1.22s-1.18,1.94-1.31,3.37h8.11c0-1.48-.33-2.62-.99-3.41-.66-.79-1.6-1.18-2.83-1.18Z" style="fill: #091313; stroke-width: 0px;"/>
      <path d="M2090.6,687.09c0,2.53-.64,4.51-1.91,5.93-1.28,1.42-3.04,2.13-5.28,2.13-1.39,0-2.62-.33-3.7-.98s-1.91-1.59-2.49-2.8c-.58-1.22-.88-2.64-.88-4.28,0-2.53.63-4.5,1.9-5.91,1.27-1.41,3.02-2.12,5.27-2.12s3.9.72,5.18,2.17,1.92,3.4,1.92,5.86ZM2078.77,687.09c0,1.98.4,3.49,1.19,4.53s1.96,1.56,3.5,1.56,2.71-.52,3.5-1.55c.8-1.03,1.2-2.55,1.2-4.54s-.4-3.47-1.2-4.5c-.8-1.02-1.98-1.54-3.53-1.54s-2.7.5-3.48,1.52-1.17,2.52-1.17,4.52Z" style="fill: #091313; stroke-width: 0px;"/>
      <path d="M2101.94,695.15c-1.01,0-1.93-.19-2.77-.56-.83-.37-1.54-.95-2.1-1.72h-.17c.11.91.17,1.77.17,2.58v6.39h-2.35v-22.49h1.91l.33,2.12h.11c.6-.85,1.31-1.46,2.11-1.84.8-.38,1.72-.57,2.76-.57,2.06,0,3.65.7,4.76,2.11,1.12,1.41,1.68,3.38,1.68,5.92s-.57,4.53-1.71,5.94c-1.14,1.41-2.72,2.12-4.74,2.12ZM2101.6,681.06c-1.59,0-2.73.44-3.44,1.32-.71.88-1.07,2.27-1.09,4.19v.52c0,2.18.36,3.74,1.09,4.68.73.94,1.89,1.41,3.5,1.41,1.34,0,2.39-.54,3.15-1.63s1.14-2.58,1.14-4.49-.38-3.42-1.14-4.45c-.76-1.03-1.83-1.55-3.21-1.55Z" style="fill: #091313; stroke-width: 0px;"/>
      <path d="M2117.5,693.21c.42,0,.82-.03,1.2-.09.39-.06.69-.12.92-.19v1.8c-.25.12-.63.22-1.13.3-.5.08-.94.12-1.34.12-3,0-4.5-1.58-4.5-4.74v-9.23h-2.22v-1.13l2.22-.98.99-3.31h1.36v3.6h4.5v1.83h-4.5v9.13c0,.93.22,1.65.67,2.15.44.5,1.05.75,1.83.75Z" style="fill: #091313; stroke-width: 0px;"/>
      <path d="M2122.53,675.14c0-.54.13-.93.4-1.18.26-.25.59-.38.99-.38s.7.13.98.38c.27.25.41.65.41,1.18s-.14.92-.41,1.18c-.27.26-.6.39-.98.39-.4,0-.73-.13-.99-.39-.26-.26-.4-.65-.4-1.18ZM2125.08,694.87h-2.35v-15.52h2.35v15.52Z" style="fill: #091313; stroke-width: 0px;"/>
      <path d="M2149.84,694.87v-10.1c0-1.24-.26-2.16-.79-2.78-.53-.62-1.35-.93-2.46-.93-1.46,0-2.54.42-3.24,1.26s-1.05,2.13-1.05,3.88v8.67h-2.35v-10.1c0-1.24-.26-2.16-.79-2.78-.53-.62-1.35-.93-2.48-.93-1.47,0-2.55.44-3.24,1.32-.68.88-1.03,2.33-1.03,4.34v8.14h-2.35v-15.52h1.91l.38,2.12h.11c.44-.76,1.07-1.35,1.88-1.77.81-.42,1.71-.64,2.71-.64,2.43,0,4.01.88,4.76,2.63h.11c.46-.81,1.13-1.45,2.01-1.93s1.88-.71,3-.71c1.76,0,3.07.45,3.94,1.35.87.9,1.31,2.34,1.31,4.33v10.12h-2.35Z" style="fill: #091313; stroke-width: 0px;"/>
      <path d="M2156.84,675.14c0-.54.13-.93.4-1.18.26-.25.59-.38.99-.38s.7.13.98.38c.27.25.41.65.41,1.18s-.14.92-.41,1.18c-.27.26-.6.39-.98.39-.4,0-.73-.13-.99-.39-.26-.26-.4-.65-.4-1.18ZM2159.39,694.87h-2.35v-15.52h2.35v15.52Z" style="fill: #091313; stroke-width: 0px;"/>
      <path d="M2174.3,694.87h-11.26v-1.6l8.47-12.09h-7.94v-1.83h10.52v1.83l-8.35,11.87h8.57v1.83Z" style="fill: #091313; stroke-width: 0px;"/>
      <path d="M2187.48,694.87l-.47-2.21h-.11c-.77.97-1.54,1.63-2.31,1.98-.77.34-1.73.52-2.88.52-1.54,0-2.75-.4-3.62-1.19s-1.31-1.92-1.31-3.38c0-3.13,2.51-4.78,7.52-4.93l2.63-.08v-.96c0-1.22-.26-2.12-.79-2.7-.52-.58-1.36-.87-2.51-.87-1.29,0-2.76.4-4.39,1.19l-.72-1.8c.77-.42,1.6-.74,2.51-.98s1.82-.35,2.74-.35c1.85,0,3.22.41,4.11,1.23.89.82,1.34,2.14,1.34,3.95v10.59h-1.74ZM2182.17,693.21c1.46,0,2.61-.4,3.45-1.2.84-.8,1.25-1.93,1.25-3.37v-1.4l-2.35.1c-1.87.07-3.22.36-4.04.87-.83.51-1.24,1.31-1.24,2.4,0,.85.26,1.5.77,1.94s1.23.67,2.16.67Z" style="fill: #091313; stroke-width: 0px;"/>
      <path d="M2199.08,693.21c.42,0,.82-.03,1.2-.09.39-.06.69-.12.92-.19v1.8c-.25.12-.63.22-1.13.3-.5.08-.94.12-1.34.12-3,0-4.5-1.58-4.5-4.74v-9.23h-2.22v-1.13l2.22-.98.99-3.31h1.36v3.6h4.5v1.83h-4.5v9.13c0,.93.22,1.65.67,2.15.44.5,1.05.75,1.83.75Z" style="fill: #091313; stroke-width: 0px;"/>
      <path d="M2204.1,675.14c0-.54.13-.93.4-1.18.26-.25.59-.38.99-.38s.7.13.98.38c.27.25.41.65.41,1.18s-.14.92-.41,1.18c-.27.26-.6.39-.98.39-.4,0-.73-.13-.99-.39-.26-.26-.4-.65-.4-1.18ZM2206.65,694.87h-2.35v-15.52h2.35v15.52Z" style="fill: #091313; stroke-width: 0px;"/>
      <path d="M2225.03,687.09c0,2.53-.64,4.51-1.91,5.93-1.28,1.42-3.04,2.13-5.28,2.13-1.39,0-2.62-.33-3.7-.98s-1.91-1.59-2.49-2.8c-.58-1.22-.88-2.64-.88-4.28,0-2.53.63-4.5,1.9-5.91,1.27-1.41,3.02-2.12,5.27-2.12s3.9.72,5.18,2.17,1.92,3.4,1.92,5.86ZM2213.21,687.09c0,1.98.4,3.49,1.19,4.53s1.96,1.56,3.5,1.56,2.71-.52,3.5-1.55c.8-1.03,1.2-2.55,1.2-4.54s-.4-3.47-1.2-4.5c-.8-1.02-1.98-1.54-3.53-1.54s-2.7.5-3.48,1.52-1.17,2.52-1.17,4.52Z" style="fill: #091313; stroke-width: 0px;"/>
      <path d="M2239.77,694.87v-10.04c0-1.27-.29-2.21-.86-2.83-.58-.62-1.48-.93-2.7-.93-1.62,0-2.81.44-3.57,1.32s-1.13,2.33-1.13,4.35v8.14h-2.35v-15.52h1.91l.38,2.12h.11c.48-.76,1.16-1.36,2.02-1.78.87-.42,1.84-.63,2.9-.63,1.87,0,3.28.45,4.22,1.35.94.9,1.42,2.34,1.42,4.33v10.12h-2.35Z" style="fill: #091313; stroke-width: 0px;"/>
    </g>
    <path d="M2695.51,600.96h409.22c5.06,0,9.16,4.11,9.16,9.16v117.64c0,5.06-4.11,9.16-9.16,9.16h-409.22v-135.96h0Z" style="fill: #ffccdb; stroke-width: 0px;"/>
    <text transform="translate(2755.73 677.47)" style="fill: #091313; font-family: OpenSans-Regular, &apos;Open Sans&apos;; font-size: 29px;"><tspan x="0" y="0">Add Mutiny-based API</tspan></text>
    <g>
      <line x1="58.67" y1="804.21" x2="64.67" y2="804.21" style="fill: none; stroke: #091313; stroke-miterlimit: 10;"/>
      <line x1="88.8" y1="804.21" x2="3514.2" y2="804.21" style="fill: none; stroke: #091313; stroke-dasharray: 0 0 12.06 24.12; stroke-miterlimit: 10;"/>
      <line x1="3526.27" y1="804.21" x2="3532.27" y2="804.21" style="fill: none; stroke: #091313; stroke-miterlimit: 10;"/>
    </g>
    <circle cx="3532.27" cy="804.21" r="9.06" style="fill: #fff; stroke: #000; stroke-miterlimit: 10; stroke-width: 2px;"/>
    <circle cx="603.61" cy="804.21" r="9.06" style="fill: #fff; stroke: #000; stroke-miterlimit: 10; stroke-width: 2px;"/>
    <circle cx="1021.99" cy="804.21" r="9.06" style="fill: #fff; stroke: #000; stroke-miterlimit: 10; stroke-width: 2px;"/>
    <circle cx="1440.37" cy="804.21" r="9.06" style="fill: #fff; stroke: #000; stroke-miterlimit: 10; stroke-width: 2px;"/>
    <circle cx="1858.75" cy="804.21" r="9.06" style="fill: #fff; stroke: #000; stroke-miterlimit: 10; stroke-width: 2px;"/>
    <circle cx="2277.13" cy="804.21" r="9.06" style="fill: #fff; stroke: #000; stroke-miterlimit: 10; stroke-width: 2px;"/>
    <circle cx="2695.51" cy="804.21" r="9.06" style="fill: #fff; stroke: #000; stroke-miterlimit: 10; stroke-width: 2px;"/>
    <circle cx="3113.89" cy="804.21" r="9.06" style="fill: #fff; stroke: #000; stroke-miterlimit: 10; stroke-width: 2px;"/>
    <line x1="58.7" y1="788.85" x2="58.7" y2="819.57" style="fill: none; stroke: #091313; stroke-linecap: round; stroke-miterlimit: 10; stroke-width: 2px;"/>
    <text transform="translate(87.24 953.01)" style="fill: #091313; font-family: OpenSans-ExtraBold, &apos;Open Sans&apos;; font-size: 48px; font-weight: 700;"><tspan x="0" y="0">Operations</tspan></text>
    <text transform="translate(760.12 948)" style="fill: #091313; font-family: OpenSans-Regular, &apos;Open Sans&apos;; font-size: 29px;"><tspan x="0" y="0">Logging</tspan></text>
    <text transform="translate(1068.38 948)" style="fill: #091313; font-family: OpenSans-Regular, &apos;Open Sans&apos;; font-size: 29px;"><tspan x="0" y="0">Define health endpoints</tspan></text>
    <text transform="translate(1545.85 948)" style="fill: #091313; font-family: OpenSans-Regular, &apos;Open Sans&apos;; font-size: 29px;"><tspan x="0" y="0">Tracing context</tspan></text>
    <g>
      <path d="M1989.68,928.46h-2.83l-7.55-10.04-2.17,1.93v8.11h-2.41v-20.7h2.41v10.27l9.39-10.27h2.85l-8.33,8.99,8.64,11.71Z" style="fill: #091313; stroke-width: 0px;"/>
      <path d="M1994.38,912.94v10.07c0,1.27.29,2.21.86,2.83.58.62,1.48.93,2.71.93,1.62,0,2.81-.44,3.56-1.33.75-.89,1.13-2.34,1.13-4.35v-8.16h2.35v15.52h-1.94l-.34-2.08h-.13c-.48.76-1.15,1.35-2,1.76s-1.83.61-2.92.61c-1.89,0-3.3-.45-4.24-1.35s-1.41-2.33-1.41-4.3v-10.15h2.38Z" style="fill: #091313; stroke-width: 0px;"/>
      <path d="M2017.19,912.69c2.04,0,3.62.7,4.75,2.09,1.13,1.39,1.69,3.36,1.69,5.91s-.57,4.53-1.71,5.94c-1.14,1.41-2.72,2.12-4.74,2.12-1.01,0-1.93-.19-2.77-.56-.83-.37-1.54-.95-2.1-1.72h-.17l-.5,2h-1.69v-22.03h2.35v5.35c0,1.2-.04,2.27-.11,3.23h.11c1.09-1.55,2.72-2.32,4.87-2.32ZM2016.85,914.65c-1.6,0-2.76.46-3.47,1.38-.71.92-1.06,2.47-1.06,4.65s.36,3.74,1.09,4.68c.73.94,1.89,1.41,3.5,1.41,1.44,0,2.52-.53,3.23-1.58.71-1.05,1.06-2.57,1.06-4.54s-.35-3.53-1.06-4.52-1.8-1.49-3.29-1.49Z" style="fill: #091313; stroke-width: 0px;"/>
      <path d="M2034.3,928.74c-2.29,0-4.1-.7-5.43-2.1s-1.99-3.34-1.99-5.82.62-4.49,1.85-5.96c1.23-1.47,2.89-2.21,4.96-2.21,1.94,0,3.48.64,4.62,1.92,1.13,1.28,1.7,2.97,1.7,5.06v1.49h-10.69c.05,1.82.51,3.21,1.38,4.15s2.1,1.42,3.69,1.42c1.67,0,3.32-.35,4.96-1.05v2.1c-.83.36-1.62.62-2.36.77-.74.16-1.64.23-2.68.23ZM2033.66,914.63c-1.25,0-2.24.41-2.98,1.22s-1.18,1.94-1.31,3.37h8.11c0-1.48-.33-2.62-.99-3.41-.66-.79-1.6-1.18-2.83-1.18Z" style="fill: #091313; stroke-width: 0px;"/>
      <path d="M2051.09,912.66c.69,0,1.31.06,1.86.17l-.33,2.18c-.64-.14-1.21-.21-1.7-.21-1.26,0-2.33.51-3.22,1.53-.89,1.02-1.34,2.29-1.34,3.81v8.33h-2.35v-15.52h1.94l.27,2.87h.11c.58-1.01,1.27-1.79,2.08-2.34.81-.55,1.7-.82,2.68-.82Z" style="fill: #091313; stroke-width: 0px;"/>
      <path d="M2066.47,928.46v-10.04c0-1.27-.29-2.21-.86-2.83-.58-.62-1.48-.93-2.7-.93-1.62,0-2.81.44-3.57,1.32s-1.13,2.33-1.13,4.35v8.14h-2.35v-15.52h1.91l.38,2.12h.11c.48-.76,1.16-1.36,2.02-1.78.87-.42,1.84-.63,2.9-.63,1.87,0,3.28.45,4.22,1.35.94.9,1.42,2.34,1.42,4.33v10.12h-2.35Z" style="fill: #091313; stroke-width: 0px;"/>
      <path d="M2080.2,928.74c-2.29,0-4.1-.7-5.43-2.1s-1.99-3.34-1.99-5.82.62-4.49,1.85-5.96c1.23-1.47,2.89-2.21,4.96-2.21,1.94,0,3.48.64,4.62,1.92,1.13,1.28,1.7,2.97,1.7,5.06v1.49h-10.69c.05,1.82.51,3.21,1.38,4.15s2.1,1.42,3.69,1.42c1.67,0,3.32-.35,4.96-1.05v2.1c-.83.36-1.62.62-2.36.77-.74.16-1.64.23-2.68.23ZM2079.57,914.63c-1.25,0-2.24.41-2.98,1.22s-1.18,1.94-1.31,3.37h8.11c0-1.48-.33-2.62-.99-3.41-.66-.79-1.6-1.18-2.83-1.18Z" style="fill: #091313; stroke-width: 0px;"/>
      <path d="M2094.93,926.8c.42,0,.82-.03,1.2-.09.39-.06.69-.12.92-.19v1.8c-.25.12-.63.22-1.13.3-.5.08-.94.12-1.34.12-3,0-4.5-1.58-4.5-4.74v-9.23h-2.22v-1.13l2.22-.98.99-3.31h1.36v3.6h4.5v1.83h-4.5v9.13c0,.93.22,1.65.67,2.15.44.5,1.05.75,1.83.75Z" style="fill: #091313; stroke-width: 0px;"/>
      <path d="M2106.71,928.74c-2.29,0-4.1-.7-5.43-2.1s-1.99-3.34-1.99-5.82.62-4.49,1.85-5.96c1.23-1.47,2.89-2.21,4.96-2.21,1.94,0,3.48.64,4.62,1.92,1.13,1.28,1.7,2.97,1.7,5.06v1.49h-10.69c.05,1.82.51,3.21,1.38,4.15s2.1,1.42,3.69,1.42c1.67,0,3.32-.35,4.96-1.05v2.1c-.83.36-1.62.62-2.36.77-.74.16-1.64.23-2.68.23ZM2106.07,914.63c-1.25,0-2.24.41-2.98,1.22s-1.18,1.94-1.31,3.37h8.11c0-1.48-.33-2.62-.99-3.41-.66-.79-1.6-1.18-2.83-1.18Z" style="fill: #091313; stroke-width: 0px;"/>
      <path d="M2126.44,924.23c0,1.44-.54,2.56-1.62,3.34s-2.59,1.18-4.53,1.18c-2.06,0-3.66-.33-4.81-.98v-2.18c.75.38,1.55.67,2.4.89s1.68.33,2.47.33c1.23,0,2.17-.2,2.83-.59.66-.39.99-.99.99-1.79,0-.6-.26-1.12-.79-1.55-.52-.43-1.55-.94-3.07-1.52-1.45-.54-2.47-1.01-3.08-1.41-.61-.4-1.06-.86-1.36-1.37-.3-.51-.45-1.12-.45-1.83,0-1.27.51-2.26,1.54-2.99,1.03-.73,2.44-1.1,4.23-1.1,1.67,0,3.3.34,4.9,1.02l-.84,1.91c-1.56-.64-2.97-.96-4.23-.96-1.11,0-1.95.17-2.52.52s-.85.83-.85,1.44c0,.42.11.77.32,1.06.21.29.55.57,1.03.84.47.26,1.38.65,2.72,1.15,1.84.67,3.08,1.35,3.73,2.02s.97,1.53.97,2.56Z" style="fill: #091313; stroke-width: 0px;"/>
      <path d="M2136.9,923.09c0-1.23.33-2.31.98-3.26s1.83-1.9,3.53-2.86c-.8-.9-1.35-1.58-1.64-2.04s-.52-.94-.69-1.44-.25-1.02-.25-1.56c0-1.42.46-2.52,1.39-3.31s2.21-1.19,3.87-1.19c1.53,0,2.73.39,3.61,1.18.88.79,1.32,1.89,1.32,3.29,0,1.01-.32,1.94-.96,2.8-.64.85-1.7,1.72-3.19,2.6l5.76,5.54c.53-.59.95-1.27,1.27-2.06.32-.79.58-1.65.8-2.58h2.38c-.64,2.7-1.61,4.75-2.9,6.15l4.23,4.12h-3.24l-2.62-2.52c-1.11,1-2.25,1.72-3.4,2.15-1.15.43-2.44.65-3.85.65-2.03,0-3.6-.5-4.72-1.5-1.12-1-1.68-2.38-1.68-4.15ZM2143.36,926.63c2.28,0,4.16-.73,5.66-2.18l-6.19-6c-1.05.64-1.79,1.17-2.22,1.59-.43.42-.76.87-.96,1.35-.21.48-.31,1.03-.31,1.64,0,1.1.37,1.98,1.1,2.63.73.65,1.71.97,2.92.97ZM2141.16,911.88c0,.65.17,1.27.51,1.86.34.59.92,1.3,1.74,2.13,1.22-.71,2.07-1.36,2.54-1.96.48-.6.72-1.29.72-2.07,0-.73-.24-1.32-.73-1.78-.49-.46-1.14-.69-1.95-.69s-1.52.23-2.05.68c-.52.45-.79,1.06-.79,1.83Z" style="fill: #091313; stroke-width: 0px;"/>
      <path d="M1927.39,963.54c-2.25,0-3.99-.69-5.22-2.07-1.23-1.38-1.85-3.34-1.85-5.87s.62-4.6,1.88-6.02,3.03-2.12,5.34-2.12c.75,0,1.49.08,2.24.24.75.16,1.33.35,1.76.57l-.72,2c-.52-.21-1.09-.38-1.7-.52-.61-.14-1.16-.21-1.63-.21-3.15,0-4.73,2.01-4.73,6.03,0,1.91.38,3.37,1.15,4.39s1.91,1.53,3.42,1.53c1.29,0,2.62-.28,3.98-.84v2.08c-1.04.54-2.35.81-3.92.81Z" style="fill: #091313; stroke-width: 0px;"/>
      <path d="M1948.39,955.49c0,2.53-.64,4.51-1.91,5.93-1.28,1.42-3.04,2.13-5.28,2.13-1.39,0-2.62-.33-3.7-.98s-1.91-1.59-2.49-2.8c-.58-1.22-.88-2.64-.88-4.28,0-2.53.63-4.5,1.9-5.91,1.27-1.41,3.02-2.12,5.27-2.12s3.9.72,5.18,2.17,1.92,3.4,1.92,5.86ZM1936.57,955.49c0,1.98.4,3.49,1.19,4.53s1.96,1.56,3.5,1.56,2.71-.52,3.5-1.55c.8-1.03,1.2-2.55,1.2-4.54s-.4-3.47-1.2-4.5c-.8-1.02-1.98-1.54-3.53-1.54s-2.7.5-3.48,1.52-1.17,2.52-1.17,4.52Z" style="fill: #091313; stroke-width: 0px;"/>
      <path d="M1963.13,963.26v-10.04c0-1.27-.29-2.21-.86-2.83-.58-.62-1.48-.93-2.7-.93-1.62,0-2.81.44-3.57,1.32s-1.13,2.33-1.13,4.35v8.14h-2.35v-15.52h1.91l.38,2.12h.11c.48-.76,1.16-1.36,2.02-1.78.87-.42,1.84-.63,2.9-.63,1.87,0,3.28.45,4.22,1.35.94.9,1.42,2.34,1.42,4.33v10.12h-2.35Z" style="fill: #091313; stroke-width: 0px;"/>
      <path d="M1975.33,961.6c.42,0,.82-.03,1.2-.09.39-.06.69-.12.92-.19v1.8c-.25.12-.63.22-1.13.3-.5.08-.94.12-1.34.12-3,0-4.5-1.58-4.5-4.74v-9.23h-2.22v-1.13l2.22-.98.99-3.31h1.36v3.6h4.5v1.83h-4.5v9.13c0,.93.22,1.65.67,2.15.44.5,1.05.75,1.83.75Z" style="fill: #091313; stroke-width: 0px;"/>
      <path d="M1990.09,963.26l-.47-2.21h-.11c-.77.97-1.54,1.63-2.31,1.98-.77.34-1.73.52-2.88.52-1.54,0-2.75-.4-3.62-1.19s-1.31-1.92-1.31-3.38c0-3.13,2.51-4.78,7.52-4.93l2.63-.08v-.96c0-1.22-.26-2.12-.79-2.7-.52-.58-1.36-.87-2.51-.87-1.29,0-2.76.4-4.39,1.19l-.72-1.8c.77-.42,1.6-.74,2.51-.98s1.82-.35,2.74-.35c1.85,0,3.22.41,4.11,1.23.89.82,1.34,2.14,1.34,3.95v10.59h-1.74ZM1984.78,961.6c1.46,0,2.61-.4,3.45-1.2.84-.8,1.25-1.93,1.25-3.37v-1.4l-2.35.1c-1.87.07-3.22.36-4.04.87-.83.51-1.24,1.31-1.24,2.4,0,.85.26,1.5.77,1.94s1.23.67,2.16.67Z" style="fill: #091313; stroke-width: 0px;"/>
      <path d="M1996.48,943.53c0-.54.13-.93.4-1.18.26-.25.59-.38.99-.38s.7.13.98.38c.27.25.41.65.41,1.18s-.14.92-.41,1.18c-.27.26-.6.39-.98.39-.4,0-.73-.13-.99-.39-.26-.26-.4-.65-.4-1.18ZM1999.03,963.26h-2.35v-15.52h2.35v15.52Z" style="fill: #091313; stroke-width: 0px;"/>
      <path d="M2014.63,963.26v-10.04c0-1.27-.29-2.21-.86-2.83-.58-.62-1.48-.93-2.7-.93-1.62,0-2.81.44-3.57,1.32s-1.13,2.33-1.13,4.35v8.14h-2.35v-15.52h1.91l.38,2.12h.11c.48-.76,1.16-1.36,2.02-1.78.87-.42,1.84-.63,2.9-.63,1.87,0,3.28.45,4.22,1.35.94.9,1.42,2.34,1.42,4.33v10.12h-2.35Z" style="fill: #091313; stroke-width: 0px;"/>
      <path d="M2028.37,963.54c-2.29,0-4.1-.7-5.43-2.1s-1.99-3.34-1.99-5.82.62-4.49,1.85-5.96c1.23-1.47,2.89-2.21,4.96-2.21,1.94,0,3.48.64,4.62,1.92,1.13,1.28,1.7,2.97,1.7,5.06v1.49h-10.69c.05,1.82.51,3.21,1.38,4.15s2.1,1.42,3.69,1.42c1.67,0,3.32-.35,4.96-1.05v2.1c-.83.36-1.62.62-2.36.77-.74.16-1.64.23-2.68.23ZM2027.73,949.43c-1.25,0-2.24.41-2.98,1.22s-1.18,1.94-1.31,3.37h8.11c0-1.48-.33-2.62-.99-3.41-.66-.79-1.6-1.18-2.83-1.18Z" style="fill: #091313; stroke-width: 0px;"/>
      <path d="M2045.16,947.46c.69,0,1.31.06,1.86.17l-.33,2.18c-.64-.14-1.21-.21-1.7-.21-1.26,0-2.33.51-3.22,1.53-.89,1.02-1.34,2.29-1.34,3.81v8.33h-2.35v-15.52h1.94l.27,2.87h.11c.58-1.01,1.27-1.79,2.08-2.34.81-.55,1.7-.82,2.68-.82Z" style="fill: #091313; stroke-width: 0px;"/>
      <path d="M2059.93,959.03c0,1.44-.54,2.56-1.62,3.34s-2.59,1.18-4.53,1.18c-2.06,0-3.66-.33-4.81-.98v-2.18c.75.38,1.55.67,2.4.89s1.68.33,2.47.33c1.23,0,2.17-.2,2.83-.59.66-.39.99-.99.99-1.79,0-.6-.26-1.12-.79-1.55-.52-.43-1.55-.94-3.07-1.52-1.45-.54-2.47-1.01-3.08-1.41-.61-.4-1.06-.86-1.36-1.37-.3-.51-.45-1.12-.45-1.83,0-1.27.51-2.26,1.54-2.99,1.03-.73,2.44-1.1,4.23-1.1,1.67,0,3.3.34,4.9,1.02l-.84,1.91c-1.56-.64-2.97-.96-4.23-.96-1.11,0-1.95.17-2.52.52s-.85.83-.85,1.44c0,.42.11.77.32,1.06.21.29.55.57,1.03.84.47.26,1.38.65,2.72,1.15,1.84.67,3.08,1.35,3.73,2.02s.97,1.53.97,2.56Z" style="fill: #091313; stroke-width: 0px;"/>
      <path d="M2071.09,943.53c0-.54.13-.93.4-1.18.26-.25.59-.38.99-.38s.7.13.98.38c.27.25.41.65.41,1.18s-.14.92-.41,1.18c-.27.26-.6.39-.98.39-.4,0-.73-.13-.99-.39-.26-.26-.4-.65-.4-1.18ZM2073.64,963.26h-2.35v-15.52h2.35v15.52Z" style="fill: #091313; stroke-width: 0px;"/>
      <path d="M2089.24,963.26v-10.04c0-1.27-.29-2.21-.86-2.83-.58-.62-1.48-.93-2.7-.93-1.62,0-2.81.44-3.57,1.32s-1.13,2.33-1.13,4.35v8.14h-2.35v-15.52h1.91l.38,2.12h.11c.48-.76,1.16-1.36,2.02-1.78.87-.42,1.84-.63,2.9-.63,1.87,0,3.28.45,4.22,1.35.94.9,1.42,2.34,1.42,4.33v10.12h-2.35Z" style="fill: #091313; stroke-width: 0px;"/>
      <path d="M2101.43,961.6c.42,0,.82-.03,1.2-.09.39-.06.69-.12.92-.19v1.8c-.25.12-.63.22-1.13.3-.5.08-.94.12-1.34.12-3,0-4.5-1.58-4.5-4.74v-9.23h-2.22v-1.13l2.22-.98.99-3.31h1.36v3.6h4.5v1.83h-4.5v9.13c0,.93.22,1.65.67,2.15.44.5,1.05.75,1.83.75Z" style="fill: #091313; stroke-width: 0px;"/>
      <path d="M2113.22,963.54c-2.29,0-4.1-.7-5.43-2.1s-1.99-3.34-1.99-5.82.62-4.49,1.85-5.96c1.23-1.47,2.89-2.21,4.96-2.21,1.94,0,3.48.64,4.62,1.92,1.13,1.28,1.7,2.97,1.7,5.06v1.49h-10.69c.05,1.82.51,3.21,1.38,4.15s2.1,1.42,3.69,1.42c1.67,0,3.32-.35,4.96-1.05v2.1c-.83.36-1.62.62-2.36.77-.74.16-1.64.23-2.68.23ZM2112.58,949.43c-1.25,0-2.24.41-2.98,1.22s-1.18,1.94-1.31,3.37h8.11c0-1.48-.33-2.62-.99-3.41-.66-.79-1.6-1.18-2.83-1.18Z" style="fill: #091313; stroke-width: 0px;"/>
      <path d="M2135.63,947.74v1.49l-2.87.34c.26.33.5.76.71,1.3.21.53.31,1.14.31,1.81,0,1.52-.52,2.73-1.56,3.64s-2.46,1.36-4.28,1.36c-.46,0-.9-.04-1.3-.11-1,.53-1.5,1.19-1.5,2,0,.42.17.74.52.94.35.2.95.3,1.8.3h2.75c1.68,0,2.97.35,3.87,1.06s1.35,1.74,1.35,3.09c0,1.72-.69,3.03-2.07,3.93-1.38.9-3.39,1.35-6.03,1.35-2.03,0-3.59-.38-4.69-1.13s-1.65-1.82-1.65-3.2c0-.94.3-1.76.91-2.45.6-.69,1.45-1.16,2.55-1.4-.4-.18-.73-.46-1-.84-.27-.38-.4-.82-.4-1.32,0-.57.15-1.06.45-1.49s.78-.84,1.43-1.23c-.8-.33-1.46-.89-1.96-1.69s-.76-1.7-.76-2.72c0-1.7.51-3.01,1.53-3.93,1.02-.92,2.46-1.38,4.33-1.38.81,0,1.54.09,2.19.28h5.37ZM2123.26,965.87c0,.84.35,1.48,1.06,1.91s1.72.65,3.04.65c1.97,0,3.43-.29,4.38-.89.95-.59,1.42-1.39,1.42-2.4,0-.84-.26-1.42-.78-1.75-.52-.33-1.5-.49-2.93-.49h-2.82c-1.07,0-1.9.25-2.49.76s-.89,1.24-.89,2.19ZM2124.53,952.71c0,1.09.31,1.91.92,2.46s1.47.84,2.56.84c2.29,0,3.44-1.11,3.44-3.34s-1.16-3.5-3.48-3.5c-1.1,0-1.95.3-2.55.89s-.89,1.48-.89,2.65Z" style="fill: #091313; stroke-width: 0px;"/>
      <path d="M2145.9,947.46c.69,0,1.31.06,1.86.17l-.33,2.18c-.64-.14-1.21-.21-1.7-.21-1.26,0-2.33.51-3.22,1.53-.89,1.02-1.34,2.29-1.34,3.81v8.33h-2.35v-15.52h1.94l.27,2.87h.11c.58-1.01,1.27-1.79,2.08-2.34.81-.55,1.7-.82,2.68-.82Z" style="fill: #091313; stroke-width: 0px;"/>
      <path d="M2160.2,963.26l-.47-2.21h-.11c-.77.97-1.54,1.63-2.31,1.98-.77.34-1.73.52-2.88.52-1.54,0-2.75-.4-3.62-1.19s-1.31-1.92-1.31-3.38c0-3.13,2.51-4.78,7.52-4.93l2.63-.08v-.96c0-1.22-.26-2.12-.79-2.7-.52-.58-1.36-.87-2.51-.87-1.29,0-2.76.4-4.39,1.19l-.72-1.8c.77-.42,1.6-.74,2.51-.98s1.82-.35,2.74-.35c1.85,0,3.22.41,4.11,1.23.89.82,1.34,2.14,1.34,3.95v10.59h-1.74ZM2154.89,961.6c1.46,0,2.61-.4,3.45-1.2.84-.8,1.25-1.93,1.25-3.37v-1.4l-2.35.1c-1.87.07-3.22.36-4.04.87-.83.51-1.24,1.31-1.24,2.4,0,.85.26,1.5.77,1.94s1.23.67,2.16.67Z" style="fill: #091313; stroke-width: 0px;"/>
      <path d="M2171.8,961.6c.42,0,.82-.03,1.2-.09.39-.06.69-.12.92-.19v1.8c-.25.12-.63.22-1.13.3-.5.08-.94.12-1.34.12-3,0-4.5-1.58-4.5-4.74v-9.23h-2.22v-1.13l2.22-.98.99-3.31h1.36v3.6h4.5v1.83h-4.5v9.13c0,.93.22,1.65.67,2.15.44.5,1.05.75,1.83.75Z" style="fill: #091313; stroke-width: 0px;"/>
      <path d="M2176.82,943.53c0-.54.13-.93.4-1.18.26-.25.59-.38.99-.38s.7.13.98.38c.27.25.41.65.41,1.18s-.14.92-.41,1.18c-.27.26-.6.39-.98.39-.4,0-.73-.13-.99-.39-.26-.26-.4-.65-.4-1.18ZM2179.37,963.26h-2.35v-15.52h2.35v15.52Z" style="fill: #091313; stroke-width: 0px;"/>
      <path d="M2197.75,955.49c0,2.53-.64,4.51-1.91,5.93-1.28,1.42-3.04,2.13-5.28,2.13-1.39,0-2.62-.33-3.7-.98s-1.91-1.59-2.49-2.8c-.58-1.22-.88-2.64-.88-4.28,0-2.53.63-4.5,1.9-5.91,1.27-1.41,3.02-2.12,5.27-2.12s3.9.72,5.18,2.17,1.92,3.4,1.92,5.86ZM2185.93,955.49c0,1.98.4,3.49,1.19,4.53s1.96,1.56,3.5,1.56,2.71-.52,3.5-1.55c.8-1.03,1.2-2.55,1.2-4.54s-.4-3.47-1.2-4.5c-.8-1.02-1.98-1.54-3.53-1.54s-2.7.5-3.48,1.52-1.17,2.52-1.17,4.52Z" style="fill: #091313; stroke-width: 0px;"/>
      <path d="M2212.49,963.26v-10.04c0-1.27-.29-2.21-.86-2.83-.58-.62-1.48-.93-2.7-.93-1.62,0-2.81.44-3.57,1.32s-1.13,2.33-1.13,4.35v8.14h-2.35v-15.52h1.91l.38,2.12h.11c.48-.76,1.16-1.36,2.02-1.78.87-.42,1.84-.63,2.9-.63,1.87,0,3.28.45,4.22,1.35.94.9,1.42,2.34,1.42,4.33v10.12h-2.35Z" style="fill: #091313; stroke-width: 0px;"/>
    </g>
    <g>
      <line x1="58.67" y1="1074.74" x2="64.67" y2="1074.74" style="fill: none; stroke: #091313; stroke-miterlimit: 10;"/>
      <line x1="88.8" y1="1074.74" x2="3514.2" y2="1074.74" style="fill: none; stroke: #091313; stroke-dasharray: 0 0 12.06 24.12; stroke-miterlimit: 10;"/>
      <line x1="3526.27" y1="1074.74" x2="3532.27" y2="1074.74" style="fill: none; stroke: #091313; stroke-miterlimit: 10;"/>
    </g>
    <circle cx="3532.27" cy="1074.74" r="9.06" style="fill: #fff; stroke: #000; stroke-miterlimit: 10; stroke-width: 2px;"/>
    <circle cx="603.61" cy="1074.74" r="9.06" style="fill: #fff; stroke: #000; stroke-miterlimit: 10; stroke-width: 2px;"/>
    <circle cx="1021.99" cy="1074.74" r="9.06" style="fill: #fff; stroke: #000; stroke-miterlimit: 10; stroke-width: 2px;"/>
    <circle cx="1440.37" cy="1074.74" r="9.06" style="fill: #fff; stroke: #000; stroke-miterlimit: 10; stroke-width: 2px;"/>
    <circle cx="1858.75" cy="1074.74" r="9.06" style="fill: #fff; stroke: #000; stroke-miterlimit: 10; stroke-width: 2px;"/>
    <circle cx="2277.13" cy="1074.74" r="9.06" style="fill: #fff; stroke: #000; stroke-miterlimit: 10; stroke-width: 2px;"/>
    <circle cx="2695.51" cy="1074.74" r="9.06" style="fill: #fff; stroke: #000; stroke-miterlimit: 10; stroke-width: 2px;"/>
    <circle cx="3113.89" cy="1074.74" r="9.06" style="fill: #fff; stroke: #000; stroke-miterlimit: 10; stroke-width: 2px;"/>
    <line x1="58.7" y1="1059.38" x2="58.7" y2="1090.11" style="fill: none; stroke: #091313; stroke-linecap: round; stroke-miterlimit: 10; stroke-width: 2px;"/>
  </g>
  <text transform="translate(621.25 1192.8)" style="font-family: OpenSans-SemiBold, &apos;Open Sans&apos;; font-size: 38px; font-weight: 600;"><tspan x="0" y="0" style="fill: #4695eb;">Implemented</tspan><tspan x="246.94" y="0" style="fill: #091313;">| </tspan><tspan x="277.75" y="0" style="fill: #ff004a;">Not yet done/not in scope</tspan></text>
</svg>