<?xml version="1.0" encoding="UTF-8"?>
<svg id="Layer_1" data-name="Layer 1" xmlns="http://www.w3.org/2000/svg" viewBox="0 0 3604 1680">
  <g>
    <rect x="4" y="1578.23" width="400" height="101.77" style="fill: #aed0f6; stroke-width: 0px;"/>
    <rect x="4" y="1533.35" width="400" height="78.53" rx="15.46" ry="15.46" style="fill: #091313; stroke-width: 0px;"/>
    <text transform="translate(125.25 1585.84)" style="fill: #fff; font-family: OpenSans-Bold, &apos;Open Sans&apos;; font-size: 24px; font-weight: 700;"><tspan x="0" y="0">Works in JVM</tspan></text>
  </g>
  <g>
    <rect x="404" y="1399.56" width="400" height="280.44" style="fill: #a1c9f5; stroke-width: 0px;"/>
    <rect x="404" y="1354.68" width="400" height="78.53" rx="15.46" ry="15.46" style="fill: #091313; stroke-width: 0px;"/>
    <text transform="translate(489.81 1407.17)" style="fill: #fff; font-family: OpenSans-Bold, &apos;Open Sans&apos;; font-size: 24px; font-weight: 700;"><tspan x="0" y="0">Works in dev mode</tspan></text>
  </g>
  <g>
    <rect x="804" y="1220.89" width="400" height="459.11" style="fill: #94c1f3; stroke-width: 0px;"/>
    <rect x="804" y="1176.01" width="400" height="78.53" rx="15.46" ry="15.46" style="fill: #091313; stroke-width: 0px;"/>
    <text transform="translate(873.4 1228.5)" style="fill: #fff; font-family: OpenSans-Bold, &apos;Open Sans&apos;; font-size: 24px; font-weight: 700;"><tspan x="0" y="0">Works in native mode</tspan></text>
  </g>
  <g>
    <rect x="1204" y="1042.22" width="400" height="637.78" style="fill: #87baf2; stroke-width: 0px;"/>
    <rect x="1204" y="997.34" width="400" height="78.53" rx="15.46" ry="15.46" style="fill: #091313; stroke-width: 0px;"/>
    <text transform="translate(1321.19 1049.83)" style="fill: #fff; font-family: OpenSans-Bold, &apos;Open Sans&apos;; font-size: 24px; font-weight: 700;"><tspan x="0" y="0">Configuration</tspan></text>
  </g>
  <g>
    <rect x="1604" y="863.55" width="400" height="816.45" style="fill: #7ab3f1; stroke-width: 0px;"/>
    <rect x="1604" y="818.67" width="400" height="78.53" rx="15.46" ry="15.46" style="fill: #091313; stroke-width: 0px;"/>
    <text transform="translate(1670.16 871.17)" style="fill: #fff; font-family: OpenSans-Bold, &apos;Open Sans&apos;; font-size: 24px; font-weight: 700;"><tspan x="0" y="0">Provides a Dev Service</tspan></text>
  </g>
  <g>
    <rect x="2004" y="684.88" width="400" height="995.12" style="fill: #6dabef; stroke-width: 0px;"/>
    <rect x="2004" y="640.01" width="400" height="78.53" rx="15.46" ry="15.46" style="fill: #091313; stroke-width: 0px;"/>
    <text transform="translate(2165.04 692.5)" style="fill: #fff; font-family: OpenSans-Bold, &apos;Open Sans&apos;; font-size: 24px; font-weight: 700;"><tspan x="0" y="0">Dev UI</tspan></text>
  </g>
  <g>
    <rect x="2404" y="506.22" width="400" height="1173.78" style="fill: #60a4ee; stroke-width: 0px;"/>
    <rect x="2404" y="461.34" width="400" height="78.53" rx="15.46" ry="15.46" style="fill: #091313; stroke-width: 0px;"/>
    <text transform="translate(2444.47 513.83)" style="fill: #fff; font-family: OpenSans-Bold, &apos;Open Sans&apos;; font-size: 24px; font-weight: 700;"><tspan x="0" y="0">Joyful Programming Model</tspan></text>
  </g>
  <g>
    <rect x="2804" y="327.55" width="400" height="1352.45" style="fill: #539cec; stroke-width: 0px;"/>
    <rect x="2804" y="282.67" width="400" height="78.53" rx="15.46" ry="15.46" style="fill: #091313; stroke-width: 0px;"/>
    <text transform="translate(2857.37 335.16)" style="fill: #fff; font-family: OpenSans-Bold, &apos;Open Sans&apos;; font-size: 24px; font-weight: 700;"><tspan x="0" y="0">Supersonic Performance</tspan></text>
  </g>
  <g>
    <rect x="3204" y="148.88" width="400" height="1531.12" style="fill: #4695eb; stroke-width: 0px;"/>
    <rect x="3204" y="104" width="400" height="78.53" rx="15.46" ry="15.46" style="fill: #091313; stroke-width: 0px;"/>
    <text transform="translate(3284.78 156.49)" style="fill: #fff; font-family: OpenSans-Bold, &apos;Open Sans&apos;; font-size: 24px; font-weight: 700;"><tspan x="0" y="0">Codestart Template</tspan></text>
  </g>
  <rect x="479" y="1456.64" width="250" height="166.27" rx="34" ry="34" style="fill: #fff; stroke-width: 0px;"/>
  <g>
    <path d="M551.1,1589.61h-26.42v-97.51h26.42v11.52h-12.23v74.47h12.23v11.52Z" style="fill: #4695eb; stroke-width: 0px;"/>
    <path d="M656.9,1578.09h12.17v-74.47h-12.17v-11.52h26.42v97.51h-26.42v-11.52Z" style="fill: #4695eb; stroke-width: 0px;"/>
  </g>
  <g>
    <path d="M605.64,1588.49c-28.46.93-51.82-22.43-50.89-50.89.84-25.82,21.8-46.78,47.62-47.62,28.46-.93,51.82,22.43,50.89,50.89-.84,25.82-21.8,46.78-47.62,47.62ZM605.95,1497.66c-24.49-1.13-44.65,19.04-43.53,43.53.98,21.35,18.27,38.64,39.62,39.62,24.49,1.12,44.65-19.04,43.53-43.53-.98-21.35-18.27-38.64-39.62-39.62Z" style="fill: #091313; stroke-width: 0px;"/>
    <path d="M604,1568.93c-13.07,0-24.46-8.37-28.35-20.84-.49-1.59.07-3.36,1.45-4.28,2.27-1.52,5.12-.38,5.87,2,2.89,9.24,11.34,15.45,21.03,15.45s18.15-6.21,21.03-15.45c.74-2.38,3.6-3.52,5.86-2,1.38.92,1.95,2.7,1.45,4.28-3.89,12.46-15.28,20.84-28.35,20.84Z" style="fill: #091313; stroke-width: 0px;"/>
    <ellipse cx="589.68" cy="1524.38" rx="5.24" ry="8.54" style="fill: #091313; stroke-width: 0px;"/>
    <path d="M622.62,1531.96c-.32,0-.65-.08-.95-.25l-8.83-5.07c-.35-.2-.65-.49-.82-.85-.44-.97-.05-2.01.78-2.49l8.87-5.09c.92-.53,2.09-.21,2.62.71.53.92.21,2.09-.71,2.62l-5.97,3.43,5.9,3.38c.83.48,1.26,1.48.92,2.38-.3.79-1.04,1.25-1.8,1.25Z" style="fill: #091313; stroke-width: 0px;"/>
  </g>
  <rect x="1279" y="1277.97" width="250" height="166.27" rx="34" ry="34" style="fill: #fff; stroke-width: 0px;"/>
  <g>
    <path d="M1351.1,1410.94h-26.42v-97.51h26.42v11.52h-12.23v74.47h12.23v11.52Z" style="fill: #4695eb; stroke-width: 0px;"/>
    <path d="M1456.9,1399.42h12.17v-74.47h-12.17v-11.52h26.42v97.51h-26.42v-11.52Z" style="fill: #4695eb; stroke-width: 0px;"/>
  </g>
  <g>
    <path d="M1405.64,1409.83c-28.46.93-51.82-22.43-50.89-50.89.84-25.82,21.8-46.78,47.62-47.62,28.46-.93,51.82,22.43,50.89,50.89-.84,25.82-21.8,46.78-47.62,47.62ZM1405.95,1318.99c-24.49-1.13-44.65,19.04-43.53,43.53.98,21.35,18.27,38.64,39.62,39.62,24.49,1.12,44.65-19.04,43.53-43.53-.98-21.35-18.27-38.64-39.62-39.62Z" style="fill: #091313; stroke-width: 0px;"/>
    <path d="M1404,1390.26c-13.07,0-24.46-8.37-28.35-20.84-.49-1.59.07-3.36,1.45-4.28,2.27-1.52,5.12-.38,5.87,2,2.89,9.24,11.34,15.45,21.03,15.45s18.15-6.21,21.03-15.45c.74-2.38,3.6-3.52,5.86-2,1.38.92,1.95,2.7,1.45,4.28-3.89,12.46-15.28,20.84-28.35,20.84Z" style="fill: #091313; stroke-width: 0px;"/>
    <ellipse cx="1389.68" cy="1345.71" rx="5.24" ry="8.54" style="fill: #091313; stroke-width: 0px;"/>
    <path d="M1422.62,1353.29c-.32,0-.65-.08-.95-.25l-8.83-5.07c-.35-.2-.65-.49-.82-.85-.44-.97-.05-2.01.78-2.49l8.87-5.09c.92-.53,2.09-.21,2.62.71.53.92.21,2.09-.71,2.62l-5.97,3.43,5.9,3.38c.83.48,1.26,1.48.92,2.38-.3.79-1.04,1.25-1.8,1.25Z" style="fill: #091313; stroke-width: 0px;"/>
  </g>
  <rect x="1679" y="1188.64" width="250" height="166.27" rx="34" ry="34" style="fill: #fff; stroke-width: 0px;"/>
  <path d="M1751.1,1321.6h-26.42v-97.51h26.42v11.52h-12.23v74.47h12.23v11.52Z" style="fill: #4695eb; stroke-width: 0px;"/>
  <path d="M1856.9,1310.08h12.17v-74.47h-12.17v-11.52h26.42v97.51h-26.42v-11.52Z" style="fill: #4695eb; stroke-width: 0px;"/>
  <path d="M1805.64,1320.49c-28.46.93-51.82-22.43-50.89-50.89.84-25.82,21.8-46.78,47.62-47.62,28.46-.93,51.82,22.43,50.89,50.89-.84,25.82-21.8,46.78-47.62,47.62ZM1805.95,1229.66c-24.49-1.13-44.65,19.04-43.53,43.53.98,21.35,18.27,38.64,39.62,39.62,24.49,1.12,44.65-19.04,43.53-43.53-.98-21.35-18.27-38.64-39.62-39.62Z" style="fill: #091313; stroke-width: 0px;"/>
  <path d="M1804,1300.93c-13.07,0-24.46-8.37-28.35-20.84-.49-1.59.07-3.36,1.45-4.28,2.27-1.52,5.12-.38,5.87,2,2.89,9.24,11.34,15.45,21.03,15.45s18.15-6.21,21.03-15.45c.74-2.38,3.6-3.52,5.86-2,1.38.92,1.95,2.7,1.45,4.28-3.89,12.46-15.28,20.84-28.35,20.84Z" style="fill: #091313; stroke-width: 0px;"/>
  <ellipse cx="1789.68" cy="1256.38" rx="5.24" ry="8.54" style="fill: #091313; stroke-width: 0px;"/>
  <path d="M1822.62,1263.95c-.32,0-.65-.08-.95-.25l-8.83-5.07c-.35-.2-.65-.49-.82-.85-.44-.97-.05-2.01.78-2.49l8.87-5.09c.92-.53,2.09-.21,2.62.71.53.92.21,2.09-.71,2.62l-5.97,3.43,5.9,3.38c.83.48,1.26,1.48.92,2.38-.3.79-1.04,1.25-1.8,1.25Z" style="fill: #091313; stroke-width: 0px;"/>
  <rect x="2079" y="1099.31" width="250" height="166.27" rx="34" ry="34" style="fill: #fff; stroke-width: 0px;"/>
  <path d="M2151.1,1232.27h-26.42v-97.51h26.42v11.52h-12.23v74.47h12.23v11.52Z" style="fill: #4695eb; stroke-width: 0px;"/>
  <path d="M2256.9,1220.75h12.17v-74.47h-12.17v-11.52h26.42v97.51h-26.42v-11.52Z" style="fill: #4695eb; stroke-width: 0px;"/>
  <path d="M2205.64,1231.16c-28.46.93-51.82-22.43-50.89-50.89.84-25.82,21.8-46.78,47.62-47.62,28.46-.93,51.82,22.43,50.89,50.89-.84,25.82-21.8,46.78-47.62,47.62ZM2205.95,1140.33c-24.49-1.13-44.65,19.04-43.53,43.53.98,21.35,18.27,38.64,39.62,39.62,24.49,1.12,44.65-19.04,43.53-43.53-.98-21.35-18.27-38.64-39.62-39.62Z" style="fill: #091313; stroke-width: 0px;"/>
  <path d="M2204,1211.59c-13.07,0-24.46-8.37-28.35-20.84-.49-1.59.07-3.36,1.45-4.28,2.27-1.52,5.12-.38,5.87,2,2.89,9.24,11.34,15.45,21.03,15.45s18.15-6.21,21.03-15.45c.74-2.38,3.6-3.52,5.86-2,1.38.92,1.95,2.7,1.45,4.28-3.89,12.46-15.28,20.84-28.35,20.84Z" style="fill: #091313; stroke-width: 0px;"/>
  <ellipse cx="2189.68" cy="1167.04" rx="5.24" ry="8.54" style="fill: #091313; stroke-width: 0px;"/>
  <path d="M2222.62,1174.62c-.32,0-.65-.08-.95-.25l-8.83-5.07c-.35-.2-.65-.49-.82-.85-.44-.97-.05-2.01.78-2.49l8.87-5.09c.92-.53,2.09-.21,2.62.71.53.92.21,2.09-.71,2.62l-5.97,3.43,5.9,3.38c.83.48,1.26,1.48.92,2.38-.3.79-1.04,1.25-1.8,1.25Z" style="fill: #091313; stroke-width: 0px;"/>
  <rect x="2479" y="1009.97" width="250" height="166.27" rx="34" ry="34" style="fill: #fff; stroke-width: 0px;"/>
  <g>
    <path d="M2551.1,1142.93h-26.42v-97.51h26.42v11.52h-12.23v74.47h12.23v11.52Z" style="fill: #4695eb; stroke-width: 0px;"/>
    <path d="M2656.9,1131.41h12.17v-74.47h-12.17v-11.52h26.42v97.51h-26.42v-11.52Z" style="fill: #4695eb; stroke-width: 0px;"/>
  </g>
  <g>
    <path d="M2605.64,1141.82c-28.46.93-51.82-22.43-50.89-50.89.84-25.82,21.8-46.78,47.62-47.62,28.46-.93,51.82,22.43,50.89,50.89-.84,25.82-21.8,46.78-47.62,47.62ZM2605.95,1050.99c-24.49-1.13-44.65,19.04-43.53,43.53.98,21.35,18.27,38.64,39.62,39.62,24.49,1.12,44.65-19.04,43.53-43.53-.98-21.35-18.27-38.64-39.62-39.62Z" style="fill: #091313; stroke-width: 0px;"/>
    <path d="M2604,1122.26c-13.07,0-24.46-8.37-28.35-20.84-.49-1.59.07-3.36,1.45-4.28,2.27-1.52,5.12-.38,5.87,2,2.89,9.24,11.34,15.45,21.03,15.45s18.15-6.21,21.03-15.45c.74-2.38,3.6-3.52,5.86-2,1.38.92,1.95,2.7,1.45,4.28-3.89,12.46-15.28,20.84-28.35,20.84Z" style="fill: #091313; stroke-width: 0px;"/>
    <ellipse cx="2589.68" cy="1077.71" rx="5.24" ry="8.54" style="fill: #091313; stroke-width: 0px;"/>
    <path d="M2622.62,1085.29c-.32,0-.65-.08-.95-.25l-8.83-5.07c-.35-.2-.65-.49-.82-.85-.44-.97-.05-2.01.78-2.49l8.87-5.09c.92-.53,2.09-.21,2.62.71.53.92.21,2.09-.71,2.62l-5.97,3.43,5.9,3.38c.83.48,1.26,1.48.92,2.38-.3.79-1.04,1.25-1.8,1.25Z" style="fill: #091313; stroke-width: 0px;"/>
  </g>
  <path d="M432.9,1326.31c15.92.06,31.78.8,47.55,2.99,3.94.54,7.29-3.9,5.54-7.52-3.58-7.4-6.92-14.91-10.61-22.25-3.3-6.57-6.23-14.48-11.19-19.94-2.47-2.73-7.3-.94-6.74,2.96,1.06,7.3,5.21,14.5,8.18,21.21.56,1.27,1.18,2.51,1.76,3.77-3.55-3.25-7.31-6.34-10.95-8.93-9.28-6.57-19.65-12.04-30.51-15.45-22.77-7.14-47.22-3.66-67.6,8.52-21.48,12.83-37.06,33.33-46.47,56.29-4.88,11.91-8.16,24.48-10.42,37.15-1.17,6.55-1.93,13.16-2.51,19.79-.52,6.01-1.69,12.63-.34,18.57.89,3.87,6.47,4.99,8,.86,1.86-5.02,1.85-10.53,2.52-15.82.73-5.79,1.64-11.54,2.7-17.28,2.15-11.74,5.05-23.29,9.41-34.42,8.22-20.97,21.75-39.81,40.87-52.13,18.53-11.93,40.11-14.45,61.11-8.33,10.02,2.92,19.3,7.6,28.01,13.29,3.25,2.12,6.33,4.55,9.44,6.94-8.8-.97-17.54-2.6-26.44-2.5-7.79.09-9.29,12.2-1.31,12.23Z" style="fill: #ff004a; stroke-width: 0px;"/>
  <path d="M834.56,1148.39c15.92.06,31.78.8,47.55,2.99,3.94.54,7.29-3.9,5.54-7.52-3.58-7.4-6.92-14.91-10.61-22.25-3.3-6.57-6.23-14.48-11.19-19.94-2.47-2.73-7.3-.94-6.74,2.96,1.06,7.3,5.21,14.5,8.18,21.21.56,1.27,1.18,2.51,1.76,3.77-3.55-3.25-7.31-6.34-10.95-8.93-9.28-6.57-19.65-12.04-30.51-15.45-22.77-7.14-47.22-3.66-67.6,8.52-21.48,12.83-37.06,33.33-46.47,56.29-4.88,11.91-8.16,24.48-10.42,37.15-1.17,6.55-1.93,13.16-2.51,19.79-.52,6.01-1.69,12.63-.34,18.57.89,3.87,6.47,4.99,8,.86,1.86-5.02,1.85-10.53,2.52-15.82.73-5.79,1.64-11.54,2.7-17.28,2.15-11.74,5.05-23.29,9.41-34.42,8.22-20.97,21.75-39.81,40.87-52.13,18.53-11.93,40.11-14.45,61.11-8.33,10.02,2.92,19.3,7.6,28.01,13.29,3.25,2.12,6.33,4.55,9.44,6.94-8.8-.97-17.54-2.6-26.44-2.5-7.79.09-9.29,12.2-1.31,12.23Z" style="fill: #ff004a; stroke-width: 0px;"/>
  <path d="M1236.22,970.47c15.92.06,31.78.8,47.55,2.99,3.94.54,7.29-3.9,5.54-7.52-3.58-7.4-6.92-14.91-10.61-22.25-3.3-6.57-6.23-14.48-11.19-19.94-2.47-2.73-7.3-.94-6.74,2.96,1.06,7.3,5.21,14.5,8.18,21.21.56,1.27,1.18,2.51,1.76,3.77-3.55-3.25-7.31-6.34-10.95-8.93-9.28-6.57-19.65-12.04-30.51-15.45-22.77-7.14-47.22-3.66-67.6,8.52-21.48,12.83-37.06,33.33-46.47,56.29-4.88,11.91-8.16,24.48-10.42,37.15-1.17,6.55-1.93,13.16-2.51,19.79-.52,6.01-1.69,12.63-.34,18.57.89,3.87,6.47,4.99,8,.86,1.86-5.02,1.85-10.53,2.52-15.82.73-5.79,1.64-11.54,2.7-17.28,2.15-11.74,5.05-23.29,9.41-34.42,8.22-20.97,21.75-39.81,40.87-52.13,18.53-11.93,40.11-14.45,61.11-8.33,10.02,2.92,19.3,7.6,28.01,13.29,3.25,2.12,6.33,4.55,9.44,6.94-8.8-.97-17.54-2.6-26.44-2.5-7.79.09-9.29,12.2-1.31,12.23Z" style="fill: #ff004a; stroke-width: 0px;"/>
  <path d="M1637.88,792.56c15.92.06,31.78.8,47.55,2.99,3.94.54,7.29-3.9,5.54-7.52-3.58-7.4-6.92-14.91-10.61-22.25-3.3-6.57-6.23-14.48-11.19-19.94-2.47-2.73-7.3-.94-6.74,2.96,1.06,7.3,5.21,14.5,8.18,21.21.56,1.27,1.18,2.51,1.76,3.77-3.55-3.25-7.31-6.34-10.95-8.93-9.28-6.57-19.65-12.04-30.51-15.45-22.77-7.14-47.22-3.66-67.6,8.52-21.48,12.83-37.06,33.33-46.47,56.29-4.88,11.91-8.16,24.48-10.42,37.15-1.17,6.55-1.93,13.16-2.51,19.79-.52,6.01-1.69,12.63-.34,18.57.89,3.87,6.47,4.99,8,.86,1.86-5.02,1.85-10.53,2.52-15.82.73-5.79,1.64-11.54,2.7-17.28,2.15-11.74,5.05-23.29,9.41-34.42,8.22-20.97,21.75-39.81,40.87-52.13,18.53-11.93,40.11-14.45,61.11-8.33,10.02,2.92,19.3,7.6,28.01,13.29,3.25,2.12,6.33,4.55,9.44,6.94-8.8-.97-17.54-2.6-26.44-2.5-7.79.09-9.29,12.2-1.31,12.23Z" style="fill: #ff004a; stroke-width: 0px;"/>
  <path d="M2039.54,614.64c15.92.06,31.78.8,47.55,2.99,3.94.54,7.29-3.9,5.54-7.52-3.58-7.4-6.92-14.91-10.61-22.25-3.3-6.57-6.23-14.48-11.19-19.94-2.47-2.73-7.3-.94-6.74,2.96,1.06,7.3,5.21,14.5,8.18,21.21.56,1.27,1.18,2.51,1.76,3.77-3.55-3.25-7.31-6.34-10.95-8.93-9.28-6.57-19.65-12.04-30.51-15.45-22.77-7.14-47.22-3.66-67.6,8.52-21.48,12.83-37.06,33.33-46.47,56.29-4.88,11.91-8.16,24.48-10.42,37.15-1.17,6.55-1.93,13.16-2.51,19.79-.52,6.01-1.69,12.63-.34,18.57.89,3.87,6.47,4.99,8,.86,1.86-5.02,1.85-10.53,2.52-15.82.73-5.79,1.64-11.54,2.7-17.28,2.15-11.74,5.05-23.29,9.41-34.42,8.22-20.97,21.75-39.81,40.87-52.13,18.53-11.93,40.11-14.45,61.11-8.33,10.02,2.92,19.3,7.6,28.01,13.29,3.25,2.12,6.33,4.55,9.44,6.94-8.8-.97-17.54-2.6-26.44-2.5-7.79.09-9.29,12.2-1.31,12.23Z" style="fill: #ff004a; stroke-width: 0px;"/>
  <path d="M2441.2,436.72c15.92.06,31.78.8,47.55,2.99,3.94.54,7.29-3.9,5.54-7.52-3.58-7.4-6.92-14.91-10.61-22.25-3.3-6.57-6.23-14.48-11.19-19.94-2.47-2.73-7.3-.94-6.74,2.96,1.06,7.3,5.21,14.5,8.18,21.21.56,1.27,1.18,2.51,1.76,3.77-3.55-3.25-7.31-6.34-10.95-8.93-9.28-6.57-19.65-12.04-30.51-15.45-22.77-7.14-47.22-3.66-67.6,8.52-21.48,12.83-37.06,33.33-46.47,56.29-4.88,11.91-8.16,24.48-10.42,37.15-1.17,6.55-1.93,13.16-2.51,19.79-.52,6.01-1.69,12.63-.34,18.57.89,3.87,6.47,4.99,8,.86,1.86-5.02,1.85-10.53,2.52-15.82.73-5.79,1.64-11.54,2.7-17.28,2.15-11.74,5.05-23.29,9.41-34.42,8.22-20.97,21.75-39.81,40.87-52.13,18.53-11.93,40.11-14.45,61.11-8.33,10.02,2.92,19.3,7.6,28.01,13.29,3.25,2.12,6.33,4.55,9.44,6.94-8.8-.97-17.54-2.6-26.44-2.5-7.79.09-9.29,12.2-1.31,12.23Z" style="fill: #ff004a; stroke-width: 0px;"/>
  <path d="M2842.86,258.81c15.92.06,31.78.8,47.55,2.99,3.94.54,7.29-3.9,5.54-7.52-3.58-7.4-6.92-14.91-10.61-22.25-3.3-6.57-6.23-14.48-11.19-19.94-2.47-2.73-7.3-.94-6.74,2.96,1.06,7.3,5.21,14.5,8.18,21.21.56,1.27,1.18,2.51,1.76,3.77-3.55-3.25-7.31-6.34-10.95-8.93-9.28-6.57-19.65-12.04-30.51-15.45-22.77-7.14-47.22-3.66-67.6,8.52-21.48,12.83-37.06,33.33-46.47,56.29-4.88,11.91-8.16,24.48-10.42,37.15-1.17,6.55-1.93,13.16-2.51,19.79-.52,6.01-1.69,12.63-.34,18.57.89,3.87,6.47,4.99,8,.86,1.86-5.02,1.85-10.53,2.52-15.82.73-5.79,1.64-11.54,2.7-17.28,2.15-11.74,5.05-23.29,9.41-34.42,8.22-20.97,21.75-39.81,40.87-52.13,18.53-11.93,40.11-14.45,61.11-8.33,10.02,2.92,19.3,7.6,28.01,13.29,3.25,2.12,6.33,4.55,9.44,6.94-8.8-.97-17.54-2.6-26.44-2.5-7.79.09-9.29,12.2-1.31,12.23Z" style="fill: #ff004a; stroke-width: 0px;"/>
  <path d="M3244.52,80.89c15.92.06,31.78.8,47.55,2.99,3.94.54,7.29-3.9,5.54-7.52-3.58-7.4-6.92-14.91-10.61-22.25-3.3-6.57-6.23-14.48-11.19-19.94-2.47-2.73-7.3-.94-6.74,2.96,1.06,7.3,5.21,14.5,8.18,21.21.56,1.27,1.18,2.51,1.76,3.77-3.55-3.25-7.31-6.34-10.95-8.93-9.28-6.57-19.65-12.04-30.51-15.45-22.77-7.14-47.22-3.66-67.6,8.52-21.48,12.83-37.06,33.33-46.47,56.29-4.88,11.91-8.16,24.48-10.42,37.15-1.17,6.55-1.93,13.16-2.51,19.79-.52,6.01-1.69,12.63-.34,18.57.89,3.87,6.47,4.99,8,.86,1.86-5.02,1.85-10.53,2.52-15.82.73-5.79,1.64-11.54,2.7-17.28,2.15-11.74,5.05-23.29,9.41-34.42,8.22-20.97,21.75-39.81,40.87-52.13,18.53-11.93,40.11-14.45,61.11-8.33,10.02,2.92,19.3,7.6,28.01,13.29,3.25,2.12,6.33,4.55,9.44,6.94-8.8-.97-17.54-2.6-26.44-2.5-7.79.09-9.29,12.2-1.31,12.23Z" style="fill: #ff004a; stroke-width: 0px;"/>
</svg>