<svg version="1.1" xmlns="http://www.w3.org/2000/svg" viewBox="0 0 1562.5 619" width="3125" height="1238">
  <!-- svg-source:excalidraw -->
  
  <defs>
    <style class="style-fonts">
      @font-face {
        font-family: "Virgil";
        src: url("https://excalidraw.com/Virgil.woff2");
      }
      @font-face {
        font-family: "Cascadia";
        src: url("https://excalidraw.com/Cascadia.woff2");
      }
      @font-face {
        font-family: "Assistant";
        src: url("https://excalidraw.com/Assistant-Regular.woff2");
      }
    </style>
    
  </defs>
  <rect x="0" y="0" width="1562.5" height="619" fill="#ffffff"></rect><g stroke-linecap="round" transform="translate(10 10) rotate(0 452 299.5)"><path d="M32 0 C277.11 -0.13, 522.12 -0.09, 872 0 M32 0 C339.22 0.03, 646.51 0.15, 872 0 M872 0 C893.95 0.39, 903.31 11.25, 904 32 M872 0 C891.6 2.06, 905.13 9.81, 904 32 M904 32 C904.35 144.4, 904.16 256.81, 904 567 M904 32 C906.3 157.15, 905.73 281.83, 904 567 M904 567 C903.33 590.15, 894.27 600, 872 599 M904 567 C901.86 587.36, 892.42 596.87, 872 599 M872 599 C688.71 601.46, 506.06 601.11, 32 599 M872 599 C563.81 600.74, 256.45 600.74, 32 599 M32 599 C9.49 598.18, -1.68 588.52, 0 567 M32 599 C9.24 598.9, -1.95 589.96, 0 567 M0 567 C-1.55 396.8, -1.19 225.04, 0 32 M0 567 C1.41 376.4, 1.27 185.95, 0 32 M0 32 C-0.94 11.81, 8.77 1.49, 32 0 M0 32 C0.54 10.98, 11.44 -1.91, 32 0" stroke="#1e1e1e" stroke-width="2" fill="none"></path></g><g transform="translate(374.6166687011719 15) rotate(0 87.38333129882812 12.5)"><text x="87.38333129882812" y="17.52" font-family="Virgil, Segoe UI Emoji" font-size="20px" fill="#1e1e1e" text-anchor="middle" style="white-space: pre;" direction="ltr" dominant-baseline="alphabetic">deployment module</text></g><g stroke-linecap="round" transform="translate(1072.5 177.5) rotate(0 240 104.5)"><path d="M32 0 C144.17 -1.21, 254.8 -2.13, 448 0 M32 0 C156.33 0.99, 280.95 0.62, 448 0 M448 0 C470.22 -0.96, 479.08 10.07, 480 32 M448 0 C467.62 1.95, 477.98 9.8, 480 32 M480 32 C477.86 61.58, 479.18 95.34, 480 177 M480 32 C479.01 72.03, 478.75 110.49, 480 177 M480 177 C478.43 198.09, 468.11 208.52, 448 209 M480 177 C478.51 197.6, 468.03 210.27, 448 209 M448 209 C360.16 208.61, 272.25 207.96, 32 209 M448 209 C284.49 211.19, 120.46 210.47, 32 209 M32 209 C10.16 209.8, -0.45 198.35, 0 177 M32 209 C11.99 208.87, -1.17 199.83, 0 177 M0 177 C0.82 122.4, 0.12 70.31, 0 32 M0 177 C1.11 137, 0.36 95.69, 0 32 M0 32 C0.08 9.42, 9.86 -0.95, 32 0 M0 32 C0.29 12.01, 8.79 1.88, 32 0" stroke="#1e1e1e" stroke-width="2" fill="none"></path></g><g transform="translate(1241.8833312988281 182.5) rotate(0 70.61666870117188 12.5)"><text x="70.61666870117188" y="17.52" font-family="Virgil, Segoe UI Emoji" font-size="20px" fill="#1e1e1e" text-anchor="middle" style="white-space: pre;" direction="ltr" dominant-baseline="alphabetic">runtime module</text></g><g stroke-linecap="round" transform="translate(43 93) rotate(0 129.5 96.50000000000003)"><path d="M32 0 C72.88 -0.03, 117.2 -1.82, 227 0 M32 0 C83.26 0.22, 133.25 1.29, 227 0 M227 0 C250.1 -0.17, 259.34 9.13, 259 32 M227 0 C246.16 0.19, 257.03 11.14, 259 32 M259 32 C258.23 71.41, 259.99 111.35, 259 161 M259 32 C258.09 62.67, 258.61 92.23, 259 161 M259 161 C258.22 181.61, 248.5 191.58, 227 193 M259 161 C259.18 183.42, 248.2 191.64, 227 193 M227 193 C149.98 193.4, 73.11 192.31, 32 193 M227 193 C166.02 192.5, 104.87 192.43, 32 193 M32 193 C9.62 194.29, -1.19 180.87, 0 161 M32 193 C11.04 192.51, -2.1 180.33, 0 161 M0 161 C-1.53 117.99, 0.3 75.33, 0 32 M0 161 C0.29 134.72, 0.52 108.62, 0 32 M0 32 C-1.89 11.25, 11.11 -0.78, 32 0 M0 32 C2.22 12.88, 12.79 -1.85, 32 0" stroke="#1e1e1e" stroke-width="2" fill="none"></path></g><g transform="translate(61.583335876464844 98) rotate(0 110.91666412353516 25)"><text x="110.91666412353516" y="17.52" font-family="Virgil, Segoe UI Emoji" font-size="20px" fill="#1e1e1e" text-anchor="middle" style="white-space: pre;" direction="ltr" dominant-baseline="alphabetic">user-provided</text><text x="110.91666412353516" y="42.519999999999996" font-family="Virgil, Segoe UI Emoji" font-size="20px" fill="#1e1e1e" text-anchor="middle" style="white-space: pre;" direction="ltr" dominant-baseline="alphabetic">MyEextensionController</text></g><g stroke-linecap="round" transform="translate(109 182) rotate(0 55 30)"><path d="M15 0 C44.98 1.64, 76.88 -0.56, 95 0 M15 0 C37.83 -0.09, 61.42 -0.39, 95 0 M95 0 C103.85 1.72, 111.09 6.49, 110 15 M95 0 C105.26 -2.25, 109.95 3.82, 110 15 M110 15 C111.25 23.07, 108.65 34.08, 110 45 M110 15 C110.32 22.5, 110.28 27.27, 110 45 M110 45 C108.12 55.18, 104.95 58.66, 95 60 M110 45 C108.98 53.71, 102.95 58.77, 95 60 M95 60 C69.79 58.97, 47.2 61.61, 15 60 M95 60 C62.79 59.31, 31.8 59.71, 15 60 M15 60 C3.19 61.81, -0.4 53.68, 0 45 M15 60 C4.23 57.88, 1.66 54.2, 0 45 M0 45 C-1.22 37.94, -0.56 26.93, 0 15 M0 45 C0.19 36.23, -0.09 27.04, 0 15 M0 15 C-0.23 6.06, 6.68 -0.78, 15 0 M0 15 C1.9 6.84, 6.98 0.76, 15 0" stroke="#1e1e1e" stroke-width="2" fill="none"></path></g><g transform="translate(137.73333358764648 187) rotate(0 26.266666412353516 25)"><text x="26.266666412353516" y="17.52" font-family="Virgil, Segoe UI Emoji" font-size="20px" fill="#1e1e1e" text-anchor="middle" style="white-space: pre;" direction="ltr" dominant-baseline="alphabetic">build </text><text x="26.266666412353516" y="42.519999999999996" font-family="Virgil, Segoe UI Emoji" font-size="20px" fill="#1e1e1e" text-anchor="middle" style="white-space: pre;" direction="ltr" dominant-baseline="alphabetic">items</text></g><g stroke-linecap="round" transform="translate(575 59.5) rotate(0 132 96.50000000000003)"><path d="M32 0 C93.31 0.6, 153.99 -0.06, 232 0 M32 0 C79.46 0.48, 126.75 0.7, 232 0 M232 0 C254.81 -0.5, 262.28 10.95, 264 32 M232 0 C255.57 -1.36, 264.81 10.52, 264 32 M264 32 C264.44 61.69, 263.22 92.68, 264 161 M264 32 C263.35 70.76, 262.94 108.65, 264 161 M264 161 C262.24 182.59, 251.97 191.97, 232 193 M264 161 C263.25 182.28, 252.59 193.7, 232 193 M232 193 C156.49 194.89, 83.52 192.54, 32 193 M232 193 C157.34 195.63, 83.83 193.89, 32 193 M32 193 C9.14 195, -1.38 180.68, 0 161 M32 193 C10.32 193.89, -2.27 184.35, 0 161 M0 161 C1 127.74, 0.46 93.9, 0 32 M0 161 C-1.47 132.69, 0.32 105.09, 0 32 M0 32 C1.11 11.7, 9.65 -0.94, 32 0 M0 32 C-0.27 9.61, 12.57 1.27, 32 0" stroke="#1e1e1e" stroke-width="2" fill="none"></path></g><g transform="translate(625 118.5) rotate(0 82 37.5)"><text x="82" y="17.52" font-family="Virgil, Segoe UI Emoji" font-size="20px" fill="#1e1e1e" text-anchor="middle" style="white-space: pre;" direction="ltr" dominant-baseline="alphabetic">generated </text><text x="82" y="42.519999999999996" font-family="Virgil, Segoe UI Emoji" font-size="20px" fill="#1e1e1e" text-anchor="middle" style="white-space: pre;" direction="ltr" dominant-baseline="alphabetic">noteworthy-build-</text><text x="82" y="67.52" font-family="Virgil, Segoe UI Emoji" font-size="20px" fill="#1e1e1e" text-anchor="middle" style="white-space: pre;" direction="ltr" dominant-baseline="alphabetic">items.yaml</text></g><g mask="url(#mask-dRQIPeABPnhY08YzXqDpJ)" stroke-linecap="round"><g transform="translate(221.00000000000006 235.09890039901927) rotate(0 175.50054970509518 -31.633544792849875)"><path d="M-0.6 0.21 C38.41 -10.13, 176.13 -62.71, 234.76 -62.85 C293.39 -62.99, 331.83 -10.76, 351.2 -0.64 M1.28 -0.72 C40.12 -11.37, 175.81 -64.46, 234.02 -64.76 C292.23 -65.06, 331 -13.09, 350.53 -2.52" stroke="#1e1e1e" stroke-width="2" fill="none"></path></g><g transform="translate(221.00000000000006 235.09890039901927) rotate(0 175.50054970509518 -31.633544792849875)"><path d="M326.83 -10.48 C335.57 -6.86, 344.34 -4.37, 350.53 -2.52 M326.83 -10.48 C336.28 -7.81, 344.21 -5.16, 350.53 -2.52" stroke="#1e1e1e" stroke-width="2" fill="none"></path></g><g transform="translate(221.00000000000006 235.09890039901927) rotate(0 175.50054970509518 -31.633544792849875)"><path d="M337.49 -23.85 C342.34 -15.53, 347.33 -8.28, 350.53 -2.52 M337.49 -23.85 C342.96 -16.24, 346.91 -8.6, 350.53 -2.52" stroke="#1e1e1e" stroke-width="2" fill="none"></path></g></g><mask id="mask-dRQIPeABPnhY08YzXqDpJ"><rect x="0" y="0" fill="#fff" width="672.0010994101904" height="398.365989984719"></rect><rect x="339.0140529591127" y="161.83181081331952" fill="#000" width="232.6999969482422" height="20" opacity="1"></rect></mask><g transform="translate(339.0140529591127 161.83181081331952) rotate(0 57.28335503395775 40.99364977960721)"><text x="116.3499984741211" y="14.016" font-family="Virgil, Segoe UI Emoji" font-size="16px" fill="#1e1e1e" text-anchor="middle" style="white-space: pre;" direction="ltr" dominant-baseline="alphabetic">ExtensionAnnotationProcessor</text></g><g stroke-linecap="round" transform="translate(38 373.5) rotate(0 132 96.5)"><path d="M32 0 C106.23 2.43, 178.72 0.03, 232 0 M32 0 C106.97 0.94, 182.77 1.18, 232 0 M232 0 C254.94 -0.86, 265.02 9.25, 264 32 M232 0 C252.63 0.88, 266.05 8.48, 264 32 M264 32 C264.88 79.14, 266.94 128.66, 264 161 M264 32 C263.11 63.37, 262.69 92.64, 264 161 M264 161 C265.51 180.64, 253 194.51, 232 193 M264 161 C265.79 180.28, 253.65 195.18, 232 193 M232 193 C165.08 192.09, 100.74 192.6, 32 193 M232 193 C165.48 194.18, 98.79 193.35, 32 193 M32 193 C9.7 193.06, 0.22 181.04, 0 161 M32 193 C8.77 193.26, 1.11 181.99, 0 161 M0 161 C-0.69 117.68, -2.03 75.34, 0 32 M0 161 C0.2 126.29, 0.46 90.82, 0 32 M0 32 C-1.17 11.77, 10.74 0.51, 32 0 M0 32 C0.78 9.43, 9.65 -0.4, 32 0" stroke="#1e1e1e" stroke-width="2" fill="none"></path></g><g transform="translate(60.05000305175781 445) rotate(0 109.94999694824219 25)"><text x="109.94999694824219" y="17.52" font-family="Virgil, Segoe UI Emoji" font-size="20px" fill="#1e1e1e" text-anchor="middle" style="white-space: pre;" direction="ltr" dominant-baseline="alphabetic">user-provided</text><text x="109.94999694824219" y="42.519999999999996" font-family="Virgil, Segoe UI Emoji" font-size="20px" fill="#1e1e1e" text-anchor="middle" style="white-space: pre;" direction="ltr" dominant-baseline="alphabetic">quarkus-extension.yaml</text></g><g stroke-linecap="round" transform="translate(611 363.5) rotate(0 132 96.5)"><path d="M32 0 C109.55 1.1, 188.4 0.14, 232 0 M32 0 C111.87 1.49, 191.08 0.16, 232 0 M232 0 C254.64 -0.09, 265.25 12.42, 264 32 M232 0 C253.67 1.91, 262.51 11.08, 264 32 M264 32 C262.07 61.94, 264 91.81, 264 161 M264 32 C263 58.04, 263.53 84.58, 264 161 M264 161 C265.9 183.62, 252.92 192.11, 232 193 M264 161 C265.67 183.8, 255.2 193.87, 232 193 M232 193 C160.9 192.28, 87.14 193.03, 32 193 M232 193 C179.21 192.32, 127.09 192.35, 32 193 M32 193 C12.2 192.37, -1.57 183.26, 0 161 M32 193 C9.48 193.91, -0.54 180.88, 0 161 M0 161 C0.36 128.01, -0.3 99.63, 0 32 M0 161 C0.89 120.79, 0.52 80.59, 0 32 M0 32 C-1.48 10.95, 10.8 0.68, 32 0 M0 32 C-2.27 9.71, 12.15 -1.23, 32 0" stroke="#1e1e1e" stroke-width="2" fill="none"></path></g><g transform="translate(633.0500030517578 435) rotate(0 109.94999694824219 25)"><text x="109.94999694824219" y="17.52" font-family="Virgil, Segoe UI Emoji" font-size="20px" fill="#1e1e1e" text-anchor="middle" style="white-space: pre;" direction="ltr" dominant-baseline="alphabetic">generated</text><text x="109.94999694824219" y="42.519999999999996" font-family="Virgil, Segoe UI Emoji" font-size="20px" fill="#1e1e1e" text-anchor="middle" style="white-space: pre;" direction="ltr" dominant-baseline="alphabetic">quarkus-extension.yaml</text></g><g mask="url(#mask--oP7Z-nsDio7eWTwx04hz)" stroke-linecap="round"><g transform="translate(915 352.6826007911376) rotate(0 78.25000000000006 -7.575319199121083)"><path d="M0.22 -0.3 C26.63 -2.94, 131.12 -12.81, 157.36 -15.15 M-1.13 -1.5 C25.3 -3.99, 130.43 -11.15, 156.86 -13.62" stroke="#1e1e1e" stroke-width="2" fill="none"></path></g><g transform="translate(915 352.6826007911376) rotate(0 78.25000000000006 -7.575319199121083)"><path d="M134.12 -3.24 C138.3 -4.01, 143.53 -5.7, 156.86 -13.62 M134.12 -3.24 C143.15 -6.28, 151.52 -10.32, 156.86 -13.62" stroke="#1e1e1e" stroke-width="2" fill="none"></path></g><g transform="translate(915 352.6826007911376) rotate(0 78.25000000000006 -7.575319199121083)"><path d="M132.76 -20.28 C137.32 -17.51, 142.84 -15.65, 156.86 -13.62 M132.76 -20.28 C142.26 -17.11, 151.12 -14.94, 156.86 -13.62" stroke="#1e1e1e" stroke-width="2" fill="none"></path></g></g><mask id="mask--oP7Z-nsDio7eWTwx04hz"><rect x="0" y="0" fill="#fff" width="1171.5" height="467.83323918937975"></rect><rect x="955.9166679382324" y="332.60728159201653" fill="#000" width="74.66666412353516" height="25" opacity="1"></rect></mask><g transform="translate(955.9166679382324 332.60728159201653) rotate(0 37.19907062757767 12.348028825595947)"><text x="37.33333206176758" y="17.52" font-family="Virgil, Segoe UI Emoji" font-size="20px" fill="#1e1e1e" text-anchor="middle" style="white-space: pre;" direction="ltr" dominant-baseline="alphabetic">depends</text></g><g mask="url(#mask-Bw29nXyq_LrcyVnYt0DgO)" stroke-linecap="round"><g transform="translate(864.6667269238001 362.5) rotate(0 -4.16672692380007 -119.46136503652664)"><path d="M0.52 -1.16 C3.42 -18.07, 20.45 -61.77, 16.3 -101.54 C12.15 -141.31, -17.68 -217.03, -24.37 -239.78 M-0.66 0.84 C2.17 -15.95, 19.39 -60.58, 15.34 -100.54 C11.28 -140.5, -18.56 -215.65, -24.98 -238.92" stroke="#2f9e44" stroke-width="2" fill="none"></path></g><g transform="translate(864.6667269238001 362.5) rotate(0 -4.16672692380007 -119.46136503652664)"><path d="M-9.49 -219.3 C-14.68 -223.41, -17.73 -227, -24.98 -238.92 M-9.49 -219.3 C-14.09 -223.77, -16.46 -227.73, -24.98 -238.92" stroke="#2f9e44" stroke-width="2" fill="none"></path></g><g transform="translate(864.6667269238001 362.5) rotate(0 -4.16672692380007 -119.46136503652664)"><path d="M-25.73 -213.93 C-27.49 -219.25, -27.12 -223.97, -24.98 -238.92 M-25.73 -213.93 C-26.66 -219.74, -25.31 -224.93, -24.98 -238.92" stroke="#2f9e44" stroke-width="2" fill="none"></path></g></g><mask id="mask-Bw29nXyq_LrcyVnYt0DgO"><rect x="0" y="0" fill="#fff" width="1005.6667269238001" height="701.4227300730533"></rect><rect x="858.9833335876465" y="249.5" fill="#000" width="44.03333282470703" height="25" opacity="1"></rect></mask><g transform="translate(858.9833335876465 249.5) rotate(0 1.6657012839347658 -6.471899515669733)"><text x="22.016666412353516" y="17.52" font-family="Virgil, Segoe UI Emoji" font-size="20px" fill="#2f9e44" text-anchor="middle" style="white-space: pre;" direction="ltr" dominant-baseline="alphabetic">uses</text></g><g mask="url(#mask-ua417xx4f7Vl75jagkwuu)" stroke-linecap="round"><g transform="translate(306 474.96932662207007) rotate(0 152 -2.42873409738462)"><path d="M-0.75 0.2 C50.23 -0.84, 254.19 -4.04, 304.96 -5.04 M1.05 -0.74 C52.05 -1.08, 254.19 -2.89, 304.51 -3.59" stroke="#1e1e1e" stroke-width="2" fill="none"></path></g><g transform="translate(306 474.96932662207007) rotate(0 152 -2.42873409738462)"><path d="M281.11 5.22 C286.47 5.03, 290.95 1.22, 304.51 -3.59 M281.11 5.22 C286.81 2.26, 291.05 1.68, 304.51 -3.59" stroke="#1e1e1e" stroke-width="2" fill="none"></path></g><g transform="translate(306 474.96932662207007) rotate(0 152 -2.42873409738462)"><path d="M280.92 -11.88 C286.5 -8.33, 291.01 -8.41, 304.51 -3.59 M280.92 -11.88 C286.67 -11.04, 290.95 -7.83, 304.51 -3.59" stroke="#1e1e1e" stroke-width="2" fill="none"></path></g></g><mask id="mask-ua417xx4f7Vl75jagkwuu"><rect x="0" y="0" fill="#fff" width="710" height="579.8267948168393"></rect><rect x="363.08333587646484" y="462.5405925246856" fill="#000" width="189.8333282470703" height="20" opacity="1"></rect></mask><g transform="translate(363.08333587646484 462.5405925246855) rotate(0 95.01729620583362 10.011244625970676)"><text x="94.91666412353516" y="14.016" font-family="Virgil, Segoe UI Emoji" font-size="16px" fill="#1e1e1e" text-anchor="middle" style="white-space: pre;" direction="ltr" dominant-baseline="alphabetic">ExtensionDescriptorMojo</text></g></svg>