<svg version="1.1" xmlns="http://www.w3.org/2000/svg" viewBox="0 0 1991.5 1022.5" width="3983" height="2045">
  <!-- svg-source:excalidraw -->
  
  <defs>
    <style class="style-fonts">
      @font-face {
        font-family: "Virgil";
        src: url("https://excalidraw.com/Virgil.woff2");
      }
      @font-face {
        font-family: "Cascadia";
        src: url("https://excalidraw.com/Cascadia.woff2");
      }
      @font-face {
        font-family: "Assistant";
        src: url("https://excalidraw.com/Assistant-Regular.woff2");
      }
    </style>
    
  </defs>
  <rect x="0" y="0" width="1991.5" height="1022.5" fill="#ffffff"></rect><g stroke-linecap="round" transform="translate(10 14.5) rotate(0 452 299.5)"><path d="M32 0 C277.11 -0.13, 522.12 -0.09, 872 0 M32 0 C339.22 0.03, 646.51 0.15, 872 0 M872 0 C893.95 0.39, 903.31 11.25, 904 32 M872 0 C891.6 2.06, 905.13 9.81, 904 32 M904 32 C904.35 144.4, 904.16 256.81, 904 567 M904 32 C906.3 157.15, 905.73 281.83, 904 567 M904 567 C903.33 590.15, 894.27 600, 872 599 M904 567 C901.86 587.36, 892.42 596.87, 872 599 M872 599 C688.71 601.46, 506.06 601.11, 32 599 M872 599 C563.81 600.74, 256.45 600.74, 32 599 M32 599 C9.49 598.18, -1.68 588.52, 0 567 M32 599 C9.24 598.9, -1.95 589.96, 0 567 M0 567 C-1.55 396.8, -1.19 225.04, 0 32 M0 567 C1.41 376.4, 1.27 185.95, 0 32 M0 32 C-0.94 11.81, 8.77 1.49, 32 0 M0 32 C0.54 10.98, 11.44 -1.91, 32 0" stroke="#1e1e1e" stroke-width="2" fill="none"></path></g><g transform="translate(374.6166687011719 19.5) rotate(0 87.38333129882812 12.5)"><text x="87.38333129882812" y="17.52" font-family="Virgil, Segoe UI Emoji" font-size="20px" fill="#1e1e1e" text-anchor="middle" style="white-space: pre;" direction="ltr" dominant-baseline="alphabetic">deployment module</text></g><g stroke-linecap="round" transform="translate(1041.5 10) rotate(0 470 300.5)"><path d="M32 0 C267.15 -1.8, 501.16 -2.48, 908 0 M32 0 C294.02 1.34, 556.25 1.07, 908 0 M908 0 C930.22 -0.96, 939.08 10.07, 940 32 M908 0 C927.62 1.95, 937.98 9.8, 940 32 M940 32 C938.09 147.06, 938.61 263.79, 940 569 M940 32 C938.56 177.52, 938.46 322.41, 940 569 M940 569 C938.43 590.09, 928.11 600.52, 908 601 M940 569 C938.51 589.6, 928.03 602.27, 908 601 M908 601 C723.36 600.65, 538.68 600.16, 32 601 M908 601 C563.69 604.06, 219.01 603.52, 32 601 M32 601 C10.16 601.8, -0.45 590.35, 0 569 M32 601 C11.99 600.87, -1.17 591.83, 0 569 M0 569 C0.48 372.28, 0.19 176.57, 0 32 M0 569 C1.48 419.52, 1.18 269.51, 0 32 M0 32 C0.08 9.42, 9.86 -0.95, 32 0 M0 32 C0.29 12.01, 8.79 1.88, 32 0" stroke="#1e1e1e" stroke-width="2" fill="none"></path></g><g transform="translate(1440.8833312988281 15) rotate(0 70.61666870117188 12.5)"><text x="70.61666870117188" y="17.52" font-family="Virgil, Segoe UI Emoji" font-size="20px" fill="#1e1e1e" text-anchor="middle" style="white-space: pre;" direction="ltr" dominant-baseline="alphabetic">runtime module</text></g><g stroke-linecap="round" transform="translate(43 97.5) rotate(0 129.5 96.50000000000003)"><path d="M32 0 C72.88 -0.03, 117.2 -1.82, 227 0 M32 0 C83.26 0.22, 133.25 1.29, 227 0 M227 0 C250.1 -0.17, 259.34 9.13, 259 32 M227 0 C246.16 0.19, 257.03 11.14, 259 32 M259 32 C258.23 71.41, 259.99 111.35, 259 161 M259 32 C258.09 62.67, 258.61 92.23, 259 161 M259 161 C258.22 181.61, 248.5 191.58, 227 193 M259 161 C259.18 183.42, 248.2 191.64, 227 193 M227 193 C149.98 193.4, 73.11 192.31, 32 193 M227 193 C166.02 192.5, 104.87 192.43, 32 193 M32 193 C9.62 194.29, -1.19 180.87, 0 161 M32 193 C11.04 192.51, -2.1 180.33, 0 161 M0 161 C-1.53 117.99, 0.3 75.33, 0 32 M0 161 C0.29 134.72, 0.52 108.62, 0 32 M0 32 C-1.89 11.25, 11.11 -0.78, 32 0 M0 32 C2.22 12.88, 12.79 -1.85, 32 0" stroke="#1e1e1e" stroke-width="2" fill="none"></path></g><g transform="translate(61.583335876464844 102.5) rotate(0 110.91666412353516 25)"><text x="110.91666412353516" y="17.52" font-family="Virgil, Segoe UI Emoji" font-size="20px" fill="#1e1e1e" text-anchor="middle" style="white-space: pre;" direction="ltr" dominant-baseline="alphabetic">user-provided</text><text x="110.91666412353516" y="42.519999999999996" font-family="Virgil, Segoe UI Emoji" font-size="20px" fill="#1e1e1e" text-anchor="middle" style="white-space: pre;" direction="ltr" dominant-baseline="alphabetic">MyEextensionController</text></g><g stroke-linecap="round" transform="translate(109 186.5) rotate(0 55 30)"><path d="M15 0 C44.98 1.64, 76.88 -0.56, 95 0 M15 0 C37.83 -0.09, 61.42 -0.39, 95 0 M95 0 C103.85 1.72, 111.09 6.49, 110 15 M95 0 C105.26 -2.25, 109.95 3.82, 110 15 M110 15 C111.25 23.07, 108.65 34.08, 110 45 M110 15 C110.32 22.5, 110.28 27.27, 110 45 M110 45 C108.12 55.18, 104.95 58.66, 95 60 M110 45 C108.98 53.71, 102.95 58.77, 95 60 M95 60 C69.79 58.97, 47.2 61.61, 15 60 M95 60 C62.79 59.31, 31.8 59.71, 15 60 M15 60 C3.19 61.81, -0.4 53.68, 0 45 M15 60 C4.23 57.88, 1.66 54.2, 0 45 M0 45 C-1.22 37.94, -0.56 26.93, 0 15 M0 45 C0.19 36.23, -0.09 27.04, 0 15 M0 15 C-0.23 6.06, 6.68 -0.78, 15 0 M0 15 C1.9 6.84, 6.98 0.76, 15 0" stroke="#1e1e1e" stroke-width="2" fill="none"></path></g><g transform="translate(137.73333358764648 191.5) rotate(0 26.266666412353516 25)"><text x="26.266666412353516" y="17.52" font-family="Virgil, Segoe UI Emoji" font-size="20px" fill="#1e1e1e" text-anchor="middle" style="white-space: pre;" direction="ltr" dominant-baseline="alphabetic">build </text><text x="26.266666412353516" y="42.519999999999996" font-family="Virgil, Segoe UI Emoji" font-size="20px" fill="#1e1e1e" text-anchor="middle" style="white-space: pre;" direction="ltr" dominant-baseline="alphabetic">items</text></g><g stroke-linecap="round" transform="translate(575 64) rotate(0 132 96.50000000000003)"><path d="M32 0 C93.31 0.6, 153.99 -0.06, 232 0 M32 0 C79.46 0.48, 126.75 0.7, 232 0 M232 0 C254.81 -0.5, 262.28 10.95, 264 32 M232 0 C255.57 -1.36, 264.81 10.52, 264 32 M264 32 C264.44 61.69, 263.22 92.68, 264 161 M264 32 C263.35 70.76, 262.94 108.65, 264 161 M264 161 C262.24 182.59, 251.97 191.97, 232 193 M264 161 C263.25 182.28, 252.59 193.7, 232 193 M232 193 C156.49 194.89, 83.52 192.54, 32 193 M232 193 C157.34 195.63, 83.83 193.89, 32 193 M32 193 C9.14 195, -1.38 180.68, 0 161 M32 193 C10.32 193.89, -2.27 184.35, 0 161 M0 161 C1 127.74, 0.46 93.9, 0 32 M0 161 C-1.47 132.69, 0.32 105.09, 0 32 M0 32 C1.11 11.7, 9.65 -0.94, 32 0 M0 32 C-0.27 9.61, 12.57 1.27, 32 0" stroke="#1e1e1e" stroke-width="2" fill="none"></path></g><g transform="translate(625 123) rotate(0 82 37.5)"><text x="82" y="17.52" font-family="Virgil, Segoe UI Emoji" font-size="20px" fill="#1e1e1e" text-anchor="middle" style="white-space: pre;" direction="ltr" dominant-baseline="alphabetic">generated </text><text x="82" y="42.519999999999996" font-family="Virgil, Segoe UI Emoji" font-size="20px" fill="#1e1e1e" text-anchor="middle" style="white-space: pre;" direction="ltr" dominant-baseline="alphabetic">noteworthy-build-</text><text x="82" y="67.52" font-family="Virgil, Segoe UI Emoji" font-size="20px" fill="#1e1e1e" text-anchor="middle" style="white-space: pre;" direction="ltr" dominant-baseline="alphabetic">items.yaml</text></g><g mask="url(#mask-dRQIPeABPnhY08YzXqDpJ)" stroke-linecap="round"><g transform="translate(221.00000000000006 239.59890039901927) rotate(0 175.50054970509518 -31.633544792849875)"><path d="M-0.6 0.21 C38.41 -10.13, 176.13 -62.71, 234.76 -62.85 C293.39 -62.99, 331.83 -10.76, 351.2 -0.64 M1.28 -0.72 C40.12 -11.37, 175.81 -64.46, 234.02 -64.76 C292.23 -65.06, 331 -13.09, 350.53 -2.52" stroke="#1e1e1e" stroke-width="2" fill="none"></path></g><g transform="translate(221.00000000000006 239.59890039901927) rotate(0 175.50054970509518 -31.633544792849875)"><path d="M326.83 -10.48 C335.57 -6.86, 344.34 -4.37, 350.53 -2.52 M326.83 -10.48 C336.28 -7.81, 344.21 -5.16, 350.53 -2.52" stroke="#1e1e1e" stroke-width="2" fill="none"></path></g><g transform="translate(221.00000000000006 239.59890039901927) rotate(0 175.50054970509518 -31.633544792849875)"><path d="M337.49 -23.85 C342.34 -15.53, 347.33 -8.28, 350.53 -2.52 M337.49 -23.85 C342.96 -16.24, 346.91 -8.6, 350.53 -2.52" stroke="#1e1e1e" stroke-width="2" fill="none"></path></g></g><mask id="mask-dRQIPeABPnhY08YzXqDpJ"><rect x="0" y="0" fill="#fff" width="672.0010994101904" height="402.865989984719"></rect><rect x="339.0140529591127" y="166.33181081331952" fill="#000" width="232.6999969482422" height="20" opacity="1"></rect></mask><g transform="translate(339.0140529591127 166.33181081331952) rotate(0 57.28335503395775 40.99364977960721)"><text x="116.3499984741211" y="14.016" font-family="Virgil, Segoe UI Emoji" font-size="16px" fill="#1e1e1e" text-anchor="middle" style="white-space: pre;" direction="ltr" dominant-baseline="alphabetic">ExtensionAnnotationProcessor</text></g><g stroke-linecap="round" transform="translate(38 378) rotate(0 132 96.5)"><path d="M32 0 C106.23 2.43, 178.72 0.03, 232 0 M32 0 C106.97 0.94, 182.77 1.18, 232 0 M232 0 C254.94 -0.86, 265.02 9.25, 264 32 M232 0 C252.63 0.88, 266.05 8.48, 264 32 M264 32 C264.88 79.14, 266.94 128.66, 264 161 M264 32 C263.11 63.37, 262.69 92.64, 264 161 M264 161 C265.51 180.64, 253 194.51, 232 193 M264 161 C265.79 180.28, 253.65 195.18, 232 193 M232 193 C165.08 192.09, 100.74 192.6, 32 193 M232 193 C165.48 194.18, 98.79 193.35, 32 193 M32 193 C9.7 193.06, 0.22 181.04, 0 161 M32 193 C8.77 193.26, 1.11 181.99, 0 161 M0 161 C-0.69 117.68, -2.03 75.34, 0 32 M0 161 C0.2 126.29, 0.46 90.82, 0 32 M0 32 C-1.17 11.77, 10.74 0.51, 32 0 M0 32 C0.78 9.43, 9.65 -0.4, 32 0" stroke="#1e1e1e" stroke-width="2" fill="none"></path></g><g transform="translate(60.05000305175781 449.5) rotate(0 109.94999694824219 25)"><text x="109.94999694824219" y="17.52" font-family="Virgil, Segoe UI Emoji" font-size="20px" fill="#1e1e1e" text-anchor="middle" style="white-space: pre;" direction="ltr" dominant-baseline="alphabetic">user-provided</text><text x="109.94999694824219" y="42.519999999999996" font-family="Virgil, Segoe UI Emoji" font-size="20px" fill="#1e1e1e" text-anchor="middle" style="white-space: pre;" direction="ltr" dominant-baseline="alphabetic">quarkus-extension.yaml</text></g><g stroke-linecap="round" transform="translate(611 368) rotate(0 132 96.5)"><path d="M32 0 C109.55 1.1, 188.4 0.14, 232 0 M32 0 C111.87 1.49, 191.08 0.16, 232 0 M232 0 C254.64 -0.09, 265.25 12.42, 264 32 M232 0 C253.67 1.91, 262.51 11.08, 264 32 M264 32 C262.07 61.94, 264 91.81, 264 161 M264 32 C263 58.04, 263.53 84.58, 264 161 M264 161 C265.9 183.62, 252.92 192.11, 232 193 M264 161 C265.67 183.8, 255.2 193.87, 232 193 M232 193 C160.9 192.28, 87.14 193.03, 32 193 M232 193 C179.21 192.32, 127.09 192.35, 32 193 M32 193 C12.2 192.37, -1.57 183.26, 0 161 M32 193 C9.48 193.91, -0.54 180.88, 0 161 M0 161 C0.36 128.01, -0.3 99.63, 0 32 M0 161 C0.89 120.79, 0.52 80.59, 0 32 M0 32 C-1.48 10.95, 10.8 0.68, 32 0 M0 32 C-2.27 9.71, 12.15 -1.23, 32 0" stroke="#1e1e1e" stroke-width="2" fill="none"></path></g><g transform="translate(633.0500030517578 439.5) rotate(0 109.94999694824219 25)"><text x="109.94999694824219" y="17.52" font-family="Virgil, Segoe UI Emoji" font-size="20px" fill="#1e1e1e" text-anchor="middle" style="white-space: pre;" direction="ltr" dominant-baseline="alphabetic">generated</text><text x="109.94999694824219" y="42.519999999999996" font-family="Virgil, Segoe UI Emoji" font-size="20px" fill="#1e1e1e" text-anchor="middle" style="white-space: pre;" direction="ltr" dominant-baseline="alphabetic">quarkus-extension.yaml</text></g><g mask="url(#mask--oP7Z-nsDio7eWTwx04hz)" stroke-linecap="round"><g transform="translate(915.0000000000001 388.0233399972956) rotate(0 62.74999999999994 -0.15527948128718094)"><path d="M0.22 -0.3 C21.46 -0.46, 105.29 -0.44, 126.36 -0.31 M-1.13 -1.5 C20.13 -1.52, 104.59 1.22, 125.86 1.22" stroke="#1e1e1e" stroke-width="2" fill="none"></path></g><g transform="translate(915.0000000000001 388.0233399972956) rotate(0 62.74999999999994 -0.15527948128718094)"><path d="M102.22 9.35 C106.6 9.04, 112.02 7.82, 125.86 1.22 M102.22 9.35 C111.57 7.13, 120.27 3.91, 125.86 1.22" stroke="#1e1e1e" stroke-width="2" fill="none"></path></g><g transform="translate(915.0000000000001 388.0233399972956) rotate(0 62.74999999999994 -0.15527948128718094)"><path d="M102.53 -7.75 C106.94 -4.5, 112.29 -2.15, 125.86 1.22 M102.53 -7.75 C111.74 -3.74, 120.32 -0.73, 125.86 1.22" stroke="#1e1e1e" stroke-width="2" fill="none"></path></g></g><mask id="mask--oP7Z-nsDio7eWTwx04hz"><rect x="0" y="0" fill="#fff" width="1140.5" height="488.33389895986994"></rect><rect x="940.4166679382323" y="375.3680605160084" fill="#000" width="74.66666412353516" height="25" opacity="1"></rect></mask><g transform="translate(940.4166679382324 375.3680605160084) rotate(0 37.19907062757767 12.51411754329871)"><text x="37.33333206176758" y="17.52" font-family="Virgil, Segoe UI Emoji" font-size="20px" fill="#1e1e1e" text-anchor="middle" style="white-space: pre;" direction="ltr" dominant-baseline="alphabetic">depends</text></g><g mask="url(#mask-Bw29nXyq_LrcyVnYt0DgO)" stroke-linecap="round"><g transform="translate(864.6667269238001 367) rotate(0 -4.16672692380007 -119.46136503652664)"><path d="M0.52 -1.16 C3.42 -18.07, 20.45 -61.77, 16.3 -101.54 C12.15 -141.31, -17.68 -217.03, -24.37 -239.78 M-0.66 0.84 C2.17 -15.95, 19.39 -60.58, 15.34 -100.54 C11.28 -140.5, -18.56 -215.65, -24.98 -238.92" stroke="#2f9e44" stroke-width="2" fill="none"></path></g><g transform="translate(864.6667269238001 367) rotate(0 -4.16672692380007 -119.46136503652664)"><path d="M-9.49 -219.3 C-14.68 -223.41, -17.73 -227, -24.98 -238.92 M-9.49 -219.3 C-14.09 -223.77, -16.46 -227.73, -24.98 -238.92" stroke="#2f9e44" stroke-width="2" fill="none"></path></g><g transform="translate(864.6667269238001 367) rotate(0 -4.16672692380007 -119.46136503652664)"><path d="M-25.73 -213.93 C-27.49 -219.25, -27.12 -223.97, -24.98 -238.92 M-25.73 -213.93 C-26.66 -219.74, -25.31 -224.93, -24.98 -238.92" stroke="#2f9e44" stroke-width="2" fill="none"></path></g></g><mask id="mask-Bw29nXyq_LrcyVnYt0DgO"><rect x="0" y="0" fill="#fff" width="1005.6667269238001" height="705.9227300730533"></rect><rect x="858.9833335876465" y="254" fill="#000" width="44.03333282470703" height="25" opacity="1"></rect></mask><g transform="translate(858.9833335876465 254) rotate(0 1.6657012839347658 -6.471899515669733)"><text x="22.016666412353516" y="17.52" font-family="Virgil, Segoe UI Emoji" font-size="20px" fill="#2f9e44" text-anchor="middle" style="white-space: pre;" direction="ltr" dominant-baseline="alphabetic">uses</text></g><g mask="url(#mask-ua417xx4f7Vl75jagkwuu)" stroke-linecap="round"><g transform="translate(306 479.46932662207007) rotate(0 152 -2.42873409738462)"><path d="M-0.75 0.2 C50.23 -0.84, 254.19 -4.04, 304.96 -5.04 M1.05 -0.74 C52.05 -1.08, 254.19 -2.89, 304.51 -3.59" stroke="#1e1e1e" stroke-width="2" fill="none"></path></g><g transform="translate(306 479.46932662207007) rotate(0 152 -2.42873409738462)"><path d="M281.11 5.22 C286.47 5.03, 290.95 1.22, 304.51 -3.59 M281.11 5.22 C286.81 2.26, 291.05 1.68, 304.51 -3.59" stroke="#1e1e1e" stroke-width="2" fill="none"></path></g><g transform="translate(306 479.46932662207007) rotate(0 152 -2.42873409738462)"><path d="M280.92 -11.88 C286.5 -8.33, 291.01 -8.41, 304.51 -3.59 M280.92 -11.88 C286.67 -11.04, 290.95 -7.83, 304.51 -3.59" stroke="#1e1e1e" stroke-width="2" fill="none"></path></g></g><mask id="mask-ua417xx4f7Vl75jagkwuu"><rect x="0" y="0" fill="#fff" width="710" height="584.3267948168393"></rect><rect x="363.08333587646484" y="467.0405925246856" fill="#000" width="189.8333282470703" height="20" opacity="1"></rect></mask><g transform="translate(363.08333587646484 467.0405925246855) rotate(0 95.01729620583362 10.011244625970676)"><text x="94.91666412353516" y="14.016" font-family="Virgil, Segoe UI Emoji" font-size="16px" fill="#1e1e1e" text-anchor="middle" style="white-space: pre;" direction="ltr" dominant-baseline="alphabetic">ExtensionDescriptorMojo</text></g><g stroke-linecap="round" transform="translate(859 770.5) rotate(0 165 121)"><path d="M208.71 4.77 C225.14 5.92, 241.82 12.13, 255.9 18.93 C269.98 25.74, 282.51 35.65, 293.18 45.61 C303.84 55.56, 313.86 67.16, 319.88 78.67 C325.89 90.18, 328.56 102.31, 329.27 114.66 C329.98 127, 328.66 140.72, 324.14 152.76 C319.62 164.79, 311.65 176.39, 302.16 186.87 C292.67 197.36, 280.5 207.72, 267.21 215.66 C253.91 223.61, 238.08 230.21, 222.41 234.55 C206.74 238.88, 189.9 241.14, 173.17 241.68 C156.44 242.22, 138.65 241.08, 122.04 237.81 C105.43 234.54, 87.7 228.76, 73.51 222.04 C59.32 215.32, 47.29 207.36, 36.9 197.48 C26.51 187.6, 17.34 174.43, 11.17 162.77 C4.99 151.12, 0.69 139.71, -0.14 127.55 C-0.97 115.39, 1.8 101.86, 6.2 89.8 C10.61 77.74, 16.92 65.76, 26.3 55.2 C35.68 44.64, 49.06 34.21, 62.5 26.44 C75.94 18.68, 91.16 12.92, 106.92 8.6 C122.68 4.27, 138.41 0.79, 157.07 0.52 C175.73 0.24, 206.71 5.1, 218.88 6.94 C231.05 8.78, 230.93 9.78, 230.07 11.56 M175.59 0.04 C191.81 -1.14, 211.22 4.31, 227.21 8.85 C243.2 13.4, 258.86 19.23, 271.52 27.31 C284.19 35.39, 294.5 46.85, 303.21 57.33 C311.92 67.82, 319.41 78.13, 323.79 90.23 C328.17 102.33, 330.63 117.42, 329.49 129.94 C328.35 142.46, 323.23 153.74, 316.96 165.34 C310.68 176.95, 302.45 190.07, 291.82 199.58 C281.18 209.08, 267.66 215.75, 253.14 222.37 C238.62 229, 221.2 236.2, 204.69 239.32 C188.18 242.45, 171.05 242.23, 154.07 241.1 C137.1 239.98, 118.43 237.12, 102.84 232.57 C87.25 228.01, 73.39 221.72, 60.53 213.77 C47.67 205.81, 34.77 195.33, 25.68 184.83 C16.58 174.32, 10.34 162.53, 5.96 150.73 C1.58 138.93, -1.56 126.41, -0.62 114.03 C0.33 101.65, 5.27 88.2, 11.63 76.45 C17.98 64.7, 26.84 53.41, 37.52 43.53 C48.2 33.66, 61.06 23.89, 75.7 17.23 C90.34 10.56, 108.45 6.53, 125.37 3.55 C142.29 0.57, 168.97 -0.59, 177.22 -0.68 C185.47 -0.76, 175.26 0.78, 174.87 3.04" stroke="#1e1e1e" stroke-width="2" fill="none"></path></g><g transform="translate(986.7940482795126 878.9400794764277) rotate(0 37.03333282470703 12.5)"><text x="37.03333282470703" y="17.52" font-family="Virgil, Segoe UI Emoji" font-size="20px" fill="#1e1e1e" text-anchor="middle" style="white-space: pre;" direction="ltr" dominant-baseline="alphabetic">registry</text></g><g mask="url(#mask-DvhNXe7oY8IxH2eMFknRi)" stroke-linecap="round"><g transform="translate(945 787.5) rotate(0 -71.5 -113)"><path d="M0.14 0.36 C-23.57 -37.52, -118.79 -188.6, -142.81 -226.24 M-1.24 -0.5 C-25.05 -37.67, -120.27 -186.98, -143.66 -224.82" stroke="#1e1e1e" stroke-width="2" fill="none"></path></g><g transform="translate(945 787.5) rotate(0 -71.5 -113)"><path d="M-123.91 -209.5 C-128.48 -213.06, -134.5 -218.88, -143.66 -224.82 M-123.91 -209.5 C-130.89 -213.89, -138.45 -219.56, -143.66 -224.82" stroke="#1e1e1e" stroke-width="2" fill="none"></path></g><g transform="translate(945 787.5) rotate(0 -71.5 -113)"><path d="M-138.38 -200.39 C-139.34 -206.29, -141.67 -214.43, -143.66 -224.82 M-138.38 -200.39 C-140.48 -207.85, -143.08 -216.64, -143.66 -224.82" stroke="#1e1e1e" stroke-width="2" fill="none"></path></g></g><mask id="mask-DvhNXe7oY8IxH2eMFknRi"><rect x="0" y="0" fill="#fff" width="1188" height="1113.5"></rect><rect x="845.9500007629395" y="662" fill="#000" width="55.099998474121094" height="25" opacity="1"></rect></mask><g transform="translate(845.9500007629395 662) rotate(0 27.29096640891862 12.559978402405932)"><text x="27.549999237060547" y="17.52" font-family="Virgil, Segoe UI Emoji" font-size="20px" fill="#1e1e1e" text-anchor="middle" style="white-space: pre;" direction="ltr" dominant-baseline="alphabetic">reads</text></g><g stroke-linecap="round" transform="translate(1087.5 315) rotate(0 132 96.5)"><path d="M32 0 C96.94 -0.54, 162.96 -0.94, 232 0 M32 0 C79.21 -1.15, 124.08 -0.81, 232 0 M232 0 C254.08 -0.1, 265.48 10.07, 264 32 M232 0 C252.51 -0.67, 265.28 10.92, 264 32 M264 32 C263.87 81.15, 263 131.34, 264 161 M264 32 C264.33 71.08, 262.78 111.37, 264 161 M264 161 C262.65 182.19, 255 194.9, 232 193 M264 161 C265.46 181.3, 254.33 190.94, 232 193 M232 193 C163.79 192.5, 95.26 193.14, 32 193 M232 193 C185.31 192.07, 139.91 191.54, 32 193 M32 193 C9.32 191.19, 1.76 182.62, 0 161 M32 193 C10.59 192.44, 1.66 180.86, 0 161 M0 161 C0.81 118.83, 0.85 74.65, 0 32 M0 161 C-0.27 116.99, 0.38 73.83, 0 32 M0 32 C-1.31 9.17, 11.82 0.11, 32 0 M0 32 C0.35 8.38, 12.52 0.92, 32 0" stroke="#1e1e1e" stroke-width="2" fill="none"></path></g><g transform="translate(1109.5500030517578 386.5) rotate(0 109.94999694824219 25)"><text x="109.94999694824219" y="17.52" font-family="Virgil, Segoe UI Emoji" font-size="20px" fill="#1e1e1e" text-anchor="middle" style="white-space: pre;" direction="ltr" dominant-baseline="alphabetic">user-provided</text><text x="109.94999694824219" y="42.519999999999996" font-family="Virgil, Segoe UI Emoji" font-size="20px" fill="#1e1e1e" text-anchor="middle" style="white-space: pre;" direction="ltr" dominant-baseline="alphabetic">quarkus-extension.yaml</text></g><g stroke-linecap="round" transform="translate(1660.5 305) rotate(0 132 96.5)"><path d="M32 0 C103.52 -1.64, 177.81 0.97, 232 0 M32 0 C74.06 0.92, 116.12 0.69, 232 0 M232 0 C252.62 -0.58, 265.11 10.89, 264 32 M232 0 C255.4 -1.14, 263.38 11.26, 264 32 M264 32 C263.87 62.61, 264.76 96.08, 264 161 M264 32 C262.31 67.29, 263.82 103.67, 264 161 M264 161 C265.27 181.43, 254.2 191.21, 232 193 M264 161 C265.02 182.08, 251.22 193.87, 232 193 M232 193 C157.93 193.51, 85.56 194.02, 32 193 M232 193 C175.23 190.77, 120.46 191.71, 32 193 M32 193 C10.6 192.51, 1.44 181.06, 0 161 M32 193 C11.44 192.34, 1.79 182.84, 0 161 M0 161 C0.51 115.47, -0.42 70.19, 0 32 M0 161 C-0.23 122.06, 1.01 84.67, 0 32 M0 32 C0.3 8.68, 12.27 0.8, 32 0 M0 32 C2.08 11.33, 10.99 -0.44, 32 0" stroke="#1e1e1e" stroke-width="2" fill="none"></path></g><g transform="translate(1682.5500030517578 376.5) rotate(0 109.94999694824219 25)"><text x="109.94999694824219" y="17.52" font-family="Virgil, Segoe UI Emoji" font-size="20px" fill="#1e1e1e" text-anchor="middle" style="white-space: pre;" direction="ltr" dominant-baseline="alphabetic">generated</text><text x="109.94999694824219" y="42.519999999999996" font-family="Virgil, Segoe UI Emoji" font-size="20px" fill="#1e1e1e" text-anchor="middle" style="white-space: pre;" direction="ltr" dominant-baseline="alphabetic">quarkus-extension.yaml</text></g><g mask="url(#mask-NwK-E-nnUMxOKQvZXWJBR)" stroke-linecap="round"><g transform="translate(1355.5 416.46932662207007) rotate(0 152 -2.42873409738462)"><path d="M1.15 -1.1 C51.78 -2.05, 252.64 -4.86, 303.19 -5.5 M0.29 0.94 C51.35 0.12, 254.87 -3.54, 305.48 -4.3" stroke="#1e1e1e" stroke-width="2" fill="none"></path></g><g transform="translate(1355.5 416.46932662207007) rotate(0 152 -2.42873409738462)"><path d="M282.13 4.64 C286.14 0.83, 292.74 0.68, 305.48 -4.3 M282.13 4.64 C288.59 1.78, 296.39 -0.45, 305.48 -4.3" stroke="#1e1e1e" stroke-width="2" fill="none"></path></g><g transform="translate(1355.5 416.46932662207007) rotate(0 152 -2.42873409738462)"><path d="M281.84 -12.46 C285.95 -11.99, 292.63 -7.85, 305.48 -4.3 M281.84 -12.46 C288.52 -10.27, 296.4 -7.46, 305.48 -4.3" stroke="#1e1e1e" stroke-width="2" fill="none"></path></g></g><mask id="mask-NwK-E-nnUMxOKQvZXWJBR"><rect x="0" y="0" fill="#fff" width="1759.5" height="521.3267948168393"></rect><rect x="1412.5833358764648" y="394.0405925246855" fill="#000" width="189.8333282470703" height="40" opacity="1"></rect></mask><g transform="translate(1412.5833358764648 394.0405925246855) rotate(0 95.79860234274531 20.149778778259588)"><text x="94.91666412353516" y="14.016" font-family="Virgil, Segoe UI Emoji" font-size="16px" fill="#1e1e1e" text-anchor="middle" style="white-space: pre;" direction="ltr" dominant-baseline="alphabetic">ExtensionDescriptorMojo</text><text x="94.91666412353516" y="34.016" font-family="Virgil, Segoe UI Emoji" font-size="16px" fill="#1e1e1e" text-anchor="middle" style="white-space: pre;" direction="ltr" dominant-baseline="alphabetic">phase1 enrichment</text></g><g mask="url(#mask-IXKvJh8D1g4aBix2QF9Bn)" stroke-linecap="round"><g transform="translate(1130 796.5) rotate(0 295.5 -148)"><path d="M0.14 -0.29 C98.33 -49.36, 491.59 -245.82, 590.02 -295.18" stroke="#1e1e1e" stroke-width="2.5" fill="none" stroke-dasharray="8 10"></path></g><g transform="translate(1130 796.5) rotate(0 295.5 -148)"><path d="M572.84 -277.02 C578.9 -285.46, 587.17 -291.03, 590.02 -295.18" stroke="#1e1e1e" stroke-width="2.5" fill="none"></path></g><g transform="translate(1130 796.5) rotate(0 295.5 -148)"><path d="M565.19 -292.31 C574.01 -295.04, 585.14 -294.9, 590.02 -295.18" stroke="#1e1e1e" stroke-width="2.5" fill="none"></path></g></g><mask id="mask-IXKvJh8D1g4aBix2QF9Bn"><rect x="0" y="0" fill="#fff" width="1821" height="1192.5"></rect><rect x="1387.066665649414" y="636" fill="#000" width="76.86666870117188" height="25" opacity="1"></rect></mask><g transform="translate(1387.066665649414 636) rotate(0 38.013510178774595 12.767402494698786)"><text x="38.43333435058594" y="17.52" font-family="Virgil, Segoe UI Emoji" font-size="20px" fill="#1e1e1e" text-anchor="middle" style="white-space: pre;" direction="ltr" dominant-baseline="alphabetic">fallback</text></g><g mask="url(#mask-GdG8oVg1l27ACaGO3A8T_)" stroke-linecap="round"><g transform="translate(878.0000000000002 535.5) rotate(0 390.9999999999998 -24.999999999999943)"><path d="M0.13 -0.84 C58.54 5.94, 219.79 55.03, 350.14 40.2 C480.48 25.37, 710.12 -68, 782.19 -89.8" stroke="#2f9e44" stroke-width="2.5" fill="none" stroke-dasharray="8 10"></path></g><g transform="translate(878.0000000000002 535.5) rotate(0 390.9999999999998 -24.999999999999943)"><path d="M762.8 -74.01 C766.76 -78.11, 773.78 -82.32, 782.19 -89.8" stroke="#2f9e44" stroke-width="2.5" fill="none"></path></g><g transform="translate(878.0000000000002 535.5) rotate(0 390.9999999999998 -24.999999999999943)"><path d="M757.19 -90.17 C762.61 -89.87, 771.16 -89.67, 782.19 -89.8" stroke="#2f9e44" stroke-width="2.5" fill="none"></path></g></g><mask id="mask-GdG8oVg1l27ACaGO3A8T_"><rect x="0" y="0" fill="#fff" width="1759.9999999999998" height="765.4999999999999"></rect><rect x="1137.8666687011719" y="550.5" fill="#000" width="180.26666259765625" height="50" opacity="1"></rect></mask><g transform="translate(1137.8666687011719 550.5) rotate(0 131.29220271185045 -38.41130876155074)"><text x="90.13333129882812" y="17.52" font-family="Virgil, Segoe UI Emoji" font-size="20px" fill="#2f9e44" text-anchor="middle" style="white-space: pre;" direction="ltr" dominant-baseline="alphabetic">re-uses + extends</text><text x="90.13333129882812" y="42.519999999999996" font-family="Virgil, Segoe UI Emoji" font-size="20px" fill="#2f9e44" text-anchor="middle" style="white-space: pre;" direction="ltr" dominant-baseline="alphabetic"> (if available)</text></g></svg>