<svg version="1.1" xmlns="http://www.w3.org/2000/svg" viewBox="0 0 1951.5 518" width="3903" height="1036">
  <!-- svg-source:excalidraw -->
  
  <defs>
    <style class="style-fonts">
      @font-face {
        font-family: "Virgil";
        src: url("https://excalidraw.com/Virgil.woff2");
      }
      @font-face {
        font-family: "Cascadia";
        src: url("https://excalidraw.com/Cascadia.woff2");
      }
      @font-face {
        font-family: "Assistant";
        src: url("https://excalidraw.com/Assistant-Regular.woff2");
      }
    </style>
    
  </defs>
  <rect x="0" y="0" width="1951.5" height="518" fill="#ffffff"></rect><g stroke-linecap="round" transform="translate(10 178.5) rotate(0 406 161)"><path d="M32 0 C250.25 -0.13, 468.4 -0.08, 780 0 M32 0 C305.55 0.03, 579.17 0.15, 780 0 M780 0 C801.95 0.39, 811.31 11.25, 812 32 M780 0 C799.6 2.06, 813.13 9.81, 812 32 M812 32 C812.85 85.85, 812.47 139.71, 812 290 M812 32 C814.62 92.71, 813.48 152.48, 812 290 M812 290 C811.33 313.15, 802.27 323, 780 322 M812 290 C809.86 310.36, 800.42 319.87, 780 322 M780 322 C616.79 324.15, 454.2 323.8, 32 322 M780 322 C505.53 323.59, 231.9 323.59, 32 322 M32 322 C9.49 321.18, -1.68 311.52, 0 290 M32 322 C9.24 321.9, -1.95 312.96, 0 290 M0 290 C-2.21 208.96, -1.48 124.77, 0 32 M0 290 C1.41 197.98, 1.13 106.26, 0 32 M0 32 C-0.94 11.81, 8.77 1.49, 32 0 M0 32 C0.54 10.98, 11.44 -1.91, 32 0" stroke="#1e1e1e" stroke-width="2" fill="none"></path></g><g transform="translate(328.6166687011719 183.5) rotate(0 87.38333129882812 12.5)"><text x="87.38333129882812" y="17.52" font-family="Virgil, Segoe UI Emoji" font-size="20px" fill="#1e1e1e" text-anchor="middle" style="white-space: pre;" direction="ltr" dominant-baseline="alphabetic">deployment module</text></g><g stroke-linecap="round" transform="translate(1075.5 168) rotate(0 433 170)"><path d="M32 0 C247.33 -1.66, 461.53 -2.34, 834 0 M32 0 C271.87 1.24, 511.97 0.97, 834 0 M834 0 C856.22 -0.96, 865.08 10.07, 866 32 M834 0 C853.62 1.95, 863.98 9.8, 866 32 M866 32 C863.66 90.19, 864.68 151.61, 866 308 M866 32 C864.56 107.26, 864.36 181.31, 866 308 M866 308 C864.43 329.09, 854.11 339.52, 834 340 M866 308 C864.51 328.6, 854.03 341.27, 834 340 M834 340 C664.95 339.66, 495.84 339.17, 32 340 M834 340 C518.78 342.83, 203.18 342.29, 32 340 M32 340 C10.16 340.8, -0.45 329.35, 0 308 M32 340 C11.99 339.87, -1.17 330.83, 0 308 M0 308 C0.73 205.95, 0.19 105.84, 0 32 M0 308 C1.53 231.4, 0.94 153.79, 0 32 M0 32 C0.08 9.42, 9.86 -0.95, 32 0 M0 32 C0.29 12.01, 8.79 1.88, 32 0" stroke="#1e1e1e" stroke-width="2" fill="none"></path></g><g transform="translate(1437.8833312988281 173) rotate(0 70.61666870117188 12.5)"><text x="70.61666870117188" y="17.52" font-family="Virgil, Segoe UI Emoji" font-size="20px" fill="#1e1e1e" text-anchor="middle" style="white-space: pre;" direction="ltr" dominant-baseline="alphabetic">runtime module</text></g><g stroke-linecap="round" transform="translate(30 300.5) rotate(0 129.5 96.5)"><path d="M32 0 C72.88 -0.03, 117.2 -1.82, 227 0 M32 0 C83.26 0.22, 133.25 1.29, 227 0 M227 0 C250.1 -0.17, 259.34 9.13, 259 32 M227 0 C246.16 0.19, 257.03 11.14, 259 32 M259 32 C258.23 71.41, 259.99 111.35, 259 161 M259 32 C258.09 62.67, 258.61 92.23, 259 161 M259 161 C258.22 181.61, 248.5 191.58, 227 193 M259 161 C259.18 183.42, 248.2 191.64, 227 193 M227 193 C149.98 193.4, 73.11 192.31, 32 193 M227 193 C166.02 192.5, 104.87 192.43, 32 193 M32 193 C9.62 194.29, -1.19 180.87, 0 161 M32 193 C11.04 192.51, -2.1 180.33, 0 161 M0 161 C-1.53 117.99, 0.3 75.33, 0 32 M0 161 C0.29 134.72, 0.52 108.62, 0 32 M0 32 C-1.89 11.25, 11.11 -0.78, 32 0 M0 32 C2.22 12.88, 12.79 -1.85, 32 0" stroke="#1e1e1e" stroke-width="2" fill="none"></path></g><g transform="translate(48.583335876464844 305.5) rotate(0 110.91666412353516 25)"><text x="110.91666412353516" y="17.52" font-family="Virgil, Segoe UI Emoji" font-size="20px" fill="#1e1e1e" text-anchor="middle" style="white-space: pre;" direction="ltr" dominant-baseline="alphabetic">user-provided</text><text x="110.91666412353516" y="42.519999999999996" font-family="Virgil, Segoe UI Emoji" font-size="20px" fill="#1e1e1e" text-anchor="middle" style="white-space: pre;" direction="ltr" dominant-baseline="alphabetic">MyEextensionController</text></g><g stroke-linecap="round" transform="translate(46 392.5) rotate(0 55 30)"><path d="M15 0 C44.98 1.64, 76.88 -0.56, 95 0 M15 0 C37.83 -0.09, 61.42 -0.39, 95 0 M95 0 C103.85 1.72, 111.09 6.49, 110 15 M95 0 C105.26 -2.25, 109.95 3.82, 110 15 M110 15 C111.25 23.07, 108.65 34.08, 110 45 M110 15 C110.32 22.5, 110.28 27.27, 110 45 M110 45 C108.12 55.18, 104.95 58.66, 95 60 M110 45 C108.98 53.71, 102.95 58.77, 95 60 M95 60 C69.79 58.97, 47.2 61.61, 15 60 M95 60 C62.79 59.31, 31.8 59.71, 15 60 M15 60 C3.19 61.81, -0.4 53.68, 0 45 M15 60 C4.23 57.88, 1.66 54.2, 0 45 M0 45 C-1.22 37.94, -0.56 26.93, 0 15 M0 45 C0.19 36.23, -0.09 27.04, 0 15 M0 15 C-0.23 6.06, 6.68 -0.78, 15 0 M0 15 C1.9 6.84, 6.98 0.76, 15 0" stroke="#1e1e1e" stroke-width="2" fill="none"></path></g><g transform="translate(74.73333358764648 397.5) rotate(0 26.266666412353516 25)"><text x="26.266666412353516" y="17.52" font-family="Virgil, Segoe UI Emoji" font-size="20px" fill="#1e1e1e" text-anchor="middle" style="white-space: pre;" direction="ltr" dominant-baseline="alphabetic">build </text><text x="26.266666412353516" y="42.519999999999996" font-family="Virgil, Segoe UI Emoji" font-size="20px" fill="#1e1e1e" text-anchor="middle" style="white-space: pre;" direction="ltr" dominant-baseline="alphabetic">items</text></g><g stroke-linecap="round" transform="translate(514 266) rotate(0 132 96.5)"><path d="M32 0 C93.31 0.6, 153.99 -0.06, 232 0 M32 0 C79.46 0.48, 126.75 0.7, 232 0 M232 0 C254.81 -0.5, 262.28 10.95, 264 32 M232 0 C255.57 -1.36, 264.81 10.52, 264 32 M264 32 C264.44 61.69, 263.22 92.68, 264 161 M264 32 C263.35 70.76, 262.94 108.65, 264 161 M264 161 C262.24 182.59, 251.97 191.97, 232 193 M264 161 C263.25 182.28, 252.59 193.7, 232 193 M232 193 C156.49 194.89, 83.52 192.54, 32 193 M232 193 C157.34 195.63, 83.83 193.89, 32 193 M32 193 C9.14 195, -1.38 180.68, 0 161 M32 193 C10.32 193.89, -2.27 184.35, 0 161 M0 161 C1 127.74, 0.46 93.9, 0 32 M0 161 C-1.47 132.69, 0.32 105.09, 0 32 M0 32 C1.11 11.7, 9.65 -0.94, 32 0 M0 32 C-0.27 9.61, 12.57 1.27, 32 0" stroke="#1e1e1e" stroke-width="2" fill="none"></path></g><g transform="translate(564 325) rotate(0 82 37.5)"><text x="82" y="17.52" font-family="Virgil, Segoe UI Emoji" font-size="20px" fill="#1e1e1e" text-anchor="middle" style="white-space: pre;" direction="ltr" dominant-baseline="alphabetic">generated </text><text x="82" y="42.519999999999996" font-family="Virgil, Segoe UI Emoji" font-size="20px" fill="#1e1e1e" text-anchor="middle" style="white-space: pre;" direction="ltr" dominant-baseline="alphabetic">noteworthy-build-</text><text x="82" y="67.52" font-family="Virgil, Segoe UI Emoji" font-size="20px" fill="#1e1e1e" text-anchor="middle" style="white-space: pre;" direction="ltr" dominant-baseline="alphabetic">items.yaml</text></g><g mask="url(#mask-dRQIPeABPnhY08YzXqDpJ)" stroke-linecap="round"><g transform="translate(158.00000000000006 423.32061175434706) rotate(0 176.29740799307038 -26.972815667607847)"><path d="M-0.6 0.21 C36.58 3.91, 164.8 34.23, 223.76 21.43 C282.73 8.62, 331.66 -60.04, 353.2 -76.63 M1.28 -0.72 C38.28 2.68, 164.48 32.49, 223.02 19.52 C281.56 6.56, 330.84 -62.37, 352.53 -78.51" stroke="#1e1e1e" stroke-width="2" fill="none"></path></g><g transform="translate(158.00000000000006 423.32061175434706) rotate(0 176.29740799307038 -26.972815667607847)"><path d="M341.69 -55.98 C346.05 -63.28, 350.25 -71.64, 352.53 -78.51 M341.69 -55.98 C346.35 -64.76, 349.47 -73.5, 352.53 -78.51" stroke="#1e1e1e" stroke-width="2" fill="none"></path></g><g transform="translate(158.00000000000006 423.32061175434706) rotate(0 176.29740799307038 -26.972815667607847)"><path d="M329.75 -68.22 C338.28 -71.1, 346.73 -75.1, 352.53 -78.51 M329.75 -68.22 C338.86 -72.37, 346.45 -76.54, 352.53 -78.51" stroke="#1e1e1e" stroke-width="2" fill="none"></path></g></g><mask id="mask-dRQIPeABPnhY08YzXqDpJ"><rect x="0" y="0" fill="#fff" width="611.0010994101904" height="621.8429443184268"></rect><rect x="265.0140529591125" y="434.33181081331963" fill="#000" width="232.6999969482422" height="20" opacity="1"></rect></mask><g transform="translate(265.0140529591125 434.3318108133195) rotate(0 69.28335503395792 -37.98401472658031)"><text x="116.3499984741211" y="14.016" font-family="Virgil, Segoe UI Emoji" font-size="16px" fill="#1e1e1e" text-anchor="middle" style="white-space: pre;" direction="ltr" dominant-baseline="alphabetic">ExtensionAnnotationProcessor</text></g><g stroke-linecap="round" transform="translate(1107 284) rotate(0 132 96.5)"><path d="M32 0 C106.23 2.43, 178.72 0.03, 232 0 M32 0 C106.97 0.94, 182.77 1.18, 232 0 M232 0 C254.94 -0.86, 265.02 9.25, 264 32 M232 0 C252.63 0.88, 266.05 8.48, 264 32 M264 32 C264.88 79.14, 266.94 128.66, 264 161 M264 32 C263.11 63.37, 262.69 92.64, 264 161 M264 161 C265.51 180.64, 253 194.51, 232 193 M264 161 C265.79 180.28, 253.65 195.18, 232 193 M232 193 C165.08 192.09, 100.74 192.6, 32 193 M232 193 C165.48 194.18, 98.79 193.35, 32 193 M32 193 C9.7 193.06, 0.22 181.04, 0 161 M32 193 C8.77 193.26, 1.11 181.99, 0 161 M0 161 C-0.69 117.68, -2.03 75.34, 0 32 M0 161 C0.2 126.29, 0.46 90.82, 0 32 M0 32 C-1.17 11.77, 10.74 0.51, 32 0 M0 32 C0.78 9.43, 9.65 -0.4, 32 0" stroke="#1e1e1e" stroke-width="2" fill="none"></path></g><g transform="translate(1129.0500030517578 355.5) rotate(0 109.94999694824219 25)"><text x="109.94999694824219" y="17.52" font-family="Virgil, Segoe UI Emoji" font-size="20px" fill="#1e1e1e" text-anchor="middle" style="white-space: pre;" direction="ltr" dominant-baseline="alphabetic">user-provided</text><text x="109.94999694824219" y="42.519999999999996" font-family="Virgil, Segoe UI Emoji" font-size="20px" fill="#1e1e1e" text-anchor="middle" style="white-space: pre;" direction="ltr" dominant-baseline="alphabetic">quarkus-extension.yaml</text></g><g stroke-linecap="round" transform="translate(1663 286) rotate(0 132 96.5)"><path d="M32 0 C109.55 1.1, 188.4 0.14, 232 0 M32 0 C111.87 1.49, 191.08 0.16, 232 0 M232 0 C254.64 -0.09, 265.25 12.42, 264 32 M232 0 C253.67 1.91, 262.51 11.08, 264 32 M264 32 C262.07 61.94, 264 91.81, 264 161 M264 32 C263 58.04, 263.53 84.58, 264 161 M264 161 C265.9 183.62, 252.92 192.11, 232 193 M264 161 C265.67 183.8, 255.2 193.87, 232 193 M232 193 C160.9 192.28, 87.14 193.03, 32 193 M232 193 C179.21 192.32, 127.09 192.35, 32 193 M32 193 C12.2 192.37, -1.57 183.26, 0 161 M32 193 C9.48 193.91, -0.54 180.88, 0 161 M0 161 C0.36 128.01, -0.3 99.63, 0 32 M0 161 C0.89 120.79, 0.52 80.59, 0 32 M0 32 C-1.48 10.95, 10.8 0.68, 32 0 M0 32 C-2.27 9.71, 12.15 -1.23, 32 0" stroke="#1e1e1e" stroke-width="2" fill="none"></path></g><g transform="translate(1685.0500030517578 357.5) rotate(0 109.94999694824219 25)"><text x="109.94999694824219" y="17.52" font-family="Virgil, Segoe UI Emoji" font-size="20px" fill="#1e1e1e" text-anchor="middle" style="white-space: pre;" direction="ltr" dominant-baseline="alphabetic">generated</text><text x="109.94999694824219" y="42.519999999999996" font-family="Virgil, Segoe UI Emoji" font-size="20px" fill="#1e1e1e" text-anchor="middle" style="white-space: pre;" direction="ltr" dominant-baseline="alphabetic">quarkus-extension.yaml</text></g><g mask="url(#mask--oP7Z-nsDio7eWTwx04hz)" stroke-linecap="round"><g transform="translate(823 380.5850129098177) rotate(0 125.61573856581009 0.07325269524318401)"><path d="M0.22 -0.3 C42.46 -0.39, 210.29 -0.08, 252.36 0.11 M-1.13 -1.5 C41.13 -1.45, 209.59 1.57, 251.86 1.65" stroke="#1e1e1e" stroke-width="2" fill="none"></path></g><g transform="translate(823 380.5850129098177) rotate(0 125.61573856581009 0.07325269524318401)"><path d="M228.28 9.95 C232.64 9.6, 238.05 8.35, 251.86 1.65 M228.28 9.95 C237.61 7.67, 246.29 4.38, 251.86 1.65" stroke="#1e1e1e" stroke-width="2" fill="none"></path></g><g transform="translate(823 380.5850129098177) rotate(0 125.61573856581009 0.07325269524318401)"><path d="M228.46 -7.15 C232.88 -3.93, 238.25 -1.62, 251.86 1.65 M228.46 -7.15 C237.69 -3.2, 246.31 -0.25, 251.86 1.65" stroke="#1e1e1e" stroke-width="2" fill="none"></path></g></g><mask id="mask--oP7Z-nsDio7eWTwx04hz"><rect x="0" y="0" fill="#fff" width="1174.5" height="480.70320907635414"></rect><rect x="911.4166679382324" y="368.14411099308586" fill="#000" width="74.66666412353516" height="25" opacity="1"></rect></mask><g transform="translate(911.4166679382324 368.14411099308586) rotate(0 37.19907062757767 12.514154611975016)"><text x="37.33333206176758" y="17.52" font-family="Virgil, Segoe UI Emoji" font-size="20px" fill="#1e1e1e" text-anchor="middle" style="white-space: pre;" direction="ltr" dominant-baseline="alphabetic">depends</text></g><g mask="url(#mask-Bw29nXyq_LrcyVnYt0DgO)" stroke-linecap="round"><g transform="translate(1803.2130510014886 285) rotate(0 -527.5933937011007 -131.3676936369441)"><path d="M0.52 -1.16 C-82.01 -45.07, -320.31 -260.25, -496.24 -263.54 C-672.18 -266.82, -962.04 -61.59, -1055.1 -20.86 M-0.66 0.84 C-83.26 -42.95, -321.37 -259.07, -497.21 -262.54 C-673.05 -266.01, -962.92 -60.21, -1055.71 -19.99" stroke="#e03131" stroke-width="2" fill="none"></path></g><g transform="translate(1803.2130510014886 285) rotate(0 -527.5933937011007 -131.3676936369441)"><path d="M-1039.27 -38.83 C-1044.68 -34.84, -1047.93 -30.33, -1055.71 -19.99 M-1039.27 -38.83 C-1043.83 -34.51, -1046.41 -29.7, -1055.71 -19.99" stroke="#e03131" stroke-width="2" fill="none"></path></g><g transform="translate(1803.2130510014886 285) rotate(0 -527.5933937011007 -131.3676936369441)"><path d="M-1031.01 -23.85 C-1038.15 -22.99, -1043.14 -21.63, -1055.71 -19.99 M-1031.01 -23.85 C-1037.56 -22.9, -1042.02 -21.51, -1055.71 -19.99" stroke="#e03131" stroke-width="2" fill="none"></path></g></g><mask id="mask-Bw29nXyq_LrcyVnYt0DgO"><rect x="0" y="0" fill="#fff" width="2958.6047933705368" height="647.5"></rect><rect x="1246.3666648864746" y="10" fill="#000" width="121.26667022705078" height="25" opacity="1"></rect></mask><g transform="translate(1246.3666648864746 10) rotate(0 29.25299241391326 143.6323063630559)"><text x="60.63333511352539" y="17.52" font-family="Virgil, Segoe UI Emoji" font-size="20px" fill="#e03131" text-anchor="middle" style="white-space: pre;" direction="ltr" dominant-baseline="alphabetic">uses (uh oh)</text></g><g mask="url(#mask-ua417xx4f7Vl75jagkwuu)" stroke-linecap="round"><g transform="translate(1375.0000000000002 388.4945021855409) rotate(0 143.60063208229826 0.9016199294448484)"><path d="M-0.75 0.2 C47.4 0.19, 240.03 1.07, 287.96 1.1 M1.05 -0.74 C49.22 -0.06, 240.02 2.22, 287.51 2.54" stroke="#1e1e1e" stroke-width="2" fill="none"></path></g><g transform="translate(1375.0000000000002 388.4945021855409) rotate(0 143.60063208229826 0.9016199294448484)"><path d="M263.93 10.86 C269.34 10.78, 273.85 7.08, 287.51 2.54 M263.93 10.86 C269.67 8.01, 273.95 7.54, 287.51 2.54" stroke="#1e1e1e" stroke-width="2" fill="none"></path></g><g transform="translate(1375.0000000000002 388.4945021855409) rotate(0 143.60063208229826 0.9016199294448484)"><path d="M264.1 -6.24 C269.64 -2.58, 274.12 -2.55, 287.51 2.54 M264.1 -6.24 C269.81 -5.29, 274.05 -1.96, 287.51 2.54" stroke="#1e1e1e" stroke-width="2" fill="none"></path></g></g><mask id="mask-ua417xx4f7Vl75jagkwuu"><rect x="0" y="0" fill="#fff" width="1762" height="489.7716246293377"></rect><rect x="1423.5833358764646" y="379.1330634074393" fill="#000" width="189.8333282470703" height="20" opacity="1"></rect></mask><g transform="translate(1423.5833358764648 379.1330634074393) rotate(0 95.01729620583365 10.263058707546463)"><text x="94.91666412353516" y="14.016" font-family="Virgil, Segoe UI Emoji" font-size="16px" fill="#1e1e1e" text-anchor="middle" style="white-space: pre;" direction="ltr" dominant-baseline="alphabetic">ExtensionDescriptorMojo</text></g></svg>